<svg xmlns="http://www.w3.org/2000/svg" width="1536" height="1024"><path fill="#fdfdfd" d="M0 0h1536v1024H0z"/><path fill="#19a28e" d="m371.922 475.596 5.161-.02c4.657-.019 9.314-.018 13.971-.012 3.894.003 7.788-.003 11.682-.009q13.786-.02 27.568-.001a7024 7024 0 0 0 28.401-.03q12.212-.032 24.424-.022 7.284.007 14.57-.017a1826 1826 0 0 1 13.703.008q2.507.005 5.015-.01c8.543-.05 16.06-.086 23.583 4.517l3.187 1.75c5.702 4.562 8.903 8.97 9.813 16.25.348 6.831.313 13.682.35 20.521q.025 3.35.082 6.697c.055 3.238.077 6.474.091 9.712l.07 3c-.026 8.251-2.577 12.984-8.28 18.82-9.392 6.983-19.63 6.836-30.813 6.8q-2.638.012-5.276.03a2134 2134 0 0 1-14.256.023c-3.976-.002-7.952.008-11.928.017-9.383.023-18.766.023-28.15.011-9.662-.012-19.324.013-28.986.055q-12.473.053-24.944.041c-4.958-.003-9.915.002-14.873.03-4.663.025-9.324.02-13.987-.005q-2.558-.008-5.115.017c-10.538.095-18.566-.698-26.58-8.278-6.174-6.86-6.872-13.115-6.874-21.952l-.023-3.347q-.015-3.498-.009-6.995c.001-3.553-.04-7.105-.085-10.658q-.008-3.406-.008-6.812l-.05-3.199c.076-8.102 2.291-12.747 7.601-18.735l1.855-1.606 1.833-1.644c8.538-5.593 17.477-4.976 27.277-4.947"/><path fill="#151940" d="M663 426c29 0 29 0 34.688 5.188Q699.412 434.56 701 438c1.533 2.239 3.23 4.33 4.938 6.438q1.267 1.635 2.527 3.277l1.269 1.644q3.137 4.067 6.266 8.141l2.516 3.27q2.424 3.15 4.843 6.304c3.64 4.74 7.284 9.474 10.961 14.184 5.868 7.517 11.708 15.05 17.43 22.68l1.519 2.024c1.975 2.643 3.9 5.292 5.731 8.038l1-88h30v138c-28 0-28 0-33.937-4.937-1.025-1.699-2.047-3.401-2.974-5.155-2.077-3.639-4.809-6.816-7.402-10.096a1144 1144 0 0 1-3.328-4.382 2281 2281 0 0 0-8.291-10.867 1954 1954 0 0 1-15.463-20.454c-4.518-6.033-9.144-11.98-13.798-17.908C695 477.678 695 477.678 695 475h-2v90h-30z"/><path fill="#21a18e" d="M419 394c.328 3.004.328 3.004.25 6.563-.015 1.176-.03 2.353-.047 3.566C419 407 419 407 418 408a71 71 0 0 1-4.207.324c-26.48 1.654-50.356 10.38-70.793 27.676l-2.66 2.172c-8.536 7.26-14.452 15.7-19.59 25.578l-.961 1.801c-6.804 13.699-7.382 27.365-7.285 42.328q0 2.977-.005 5.956 0 6.203.034 12.407c.029 5.264.026 10.527.013 15.79-.007 4.092.001 8.184.014 12.275q.007 2.91 0 5.818c-.022 20.477 2.399 38.245 17.23 53.691L332 616l2.402 2.5c21.954 21.128 54.57 25.7 83.746 25.465q4.561-.01 9.122-.012 3.121-.015 6.242-.08c17.422-.329 17.422-.329 22.562 3.293 2.02 2.53 3.459 4.96 4.926 7.834 7.352 8.775 16.16 12.975 27 16l-.016-2.554q-.026-4.677-.039-9.354-.008-2.026-.02-4.054c-.013-1.938-.018-3.877-.023-5.815l-.016-3.54C488 643 488 643 489 642c2.511-.1 4.989-.139 7.5-.125l2.129-.012c5.244.01 5.244.01 6.371 1.137.042 2.502.02 4.973-.05 7.473l-.058 2.292q-.063 2.412-.134 4.825c-.07 2.438-.124 4.876-.178 7.314l-.13 4.694-.045 2.185C504 684 504 684 500 688c-12.804 1.85-27.63-3.72-38.055-10.746-12.611-9.651-12.611-9.651-15.027-14.366-2.572-2.532-4.754-2.372-8.252-2.417l-2.592.025-2.7-.025a719 719 0 0 0-5.722-.028c-4.933-.01-9.864-.093-14.797-.181-.96-.017-1.92-.034-2.91-.05-10.139-.207-20.016-1.113-29.945-3.212l-2.444-.516c-27.155-5.983-52.976-18.373-68.587-42.214-6.404-10.635-10.532-21.143-12.969-33.27l-2.93-.043c-11.014-.403-18.71-2.057-26.57-10.394-5.664-6.488-5.826-13.093-5.871-21.333-.01-1.035-.018-2.07-.027-3.138q-.022-3.279-.028-6.558a859 859 0 0 0-.111-9.973q-.015-3.197-.022-6.393l-.059-2.984c.052-7.94 2.451-13.374 7.505-19.454 8.214-7.038 16.407-9.323 27.113-9.73l.227-2.5c2.237-19.657 10.977-36.539 23.773-51.5.44-.56.88-1.121 1.332-1.7 10.761-13.712 27.05-23.21 42.668-30.3l3.523-1.648c12.472-5.622 39.77-17.823 52.477-9.352"/><path fill="#161a41" d="m1076.563 423.375 3.682.025c16.803.417 30.769 5.476 44.755 14.6 0 4.241-.417 5.142-2.625 8.547l-1.64 2.558-1.735 2.645-1.734 2.691A1084 1084 0 0 1 1113 461c-3.684-1.443-7.128-3.085-10.625-4.937-8.716-4.332-16.429-6.31-26.125-6.5l-2.15-.068c-6.523.029-10.711 2.3-15.537 6.755-2.06 3.625-2.344 6.728-1.563 10.75 4.194 8.234 11.717 10.28 20 13 2.868.877 5.745 1.723 8.625 2.563l2.246.656c2.918.85 5.835 1.699 8.762 2.52 11.724 3.525 23.159 9.92 29.77 20.507 4.624 8.97 5.446 21.056 2.41 30.817-1.765 4.291-4.147 8.152-6.813 11.937l-2.062 3.063c-7.632 8.752-20.825 12.994-31.938 14.937-13.987.911-27.776 1.018-41-4l-3.555-1.285c-8.719-3.425-15.995-8.146-23.445-13.715 1.463-4.3 3.66-7.424 6.438-11 2.762-3.567 5.322-7.081 7.562-11 2.402 1.14 4.648 2.392 6.926 3.77 13.848 8.353 27.705 13.666 44.074 11.23 5.03-1.478 8.581-3.456 12.125-7.312 1.514-4.652 1.757-8.658-.21-13.188-2.472-3.227-5.33-4.772-8.915-6.5l-2.123-1.047c-6.091-2.861-12.266-4.525-18.787-6.096-15.154-3.734-29.159-9.992-37.934-23.486-4.59-9.413-4.476-21.317-2.574-31.48 3.821-10.959 13.4-18.748 23.418-23.891 8.83-3.492 17.11-4.715 26.563-4.625"/><path fill="#151a40" d="m958.688 422.813 2.51-.038c4.48-.01 7.684.329 11.802 2.225l3.813.89c4.378 1.056 8.193 2.807 12.187 4.86l2.105 1.071c10.6 5.505 10.6 5.505 13.895 9.179 0 3.428-.424 3.89-2.52 6.434-.527.649-1.055 1.298-1.6 1.966l-1.692 2.038-3.27 3.996-1.545 1.878A136 136 0 0 0 990 463c-3.439-1.258-6.18-2.713-9.125-4.875-10.576-7.062-21.376-8.721-33.875-7.125-10.402 2.618-18.886 8.448-24.875 17.313-2.993 5.043-4.855 9.977-6.125 15.687l-.687 2.938C913.9 500.768 916.18 513.31 924 525l1.688 1.68C927 528 927 528 927 530l1.7.813c2.463 1.271 4.766 2.71 7.112 4.187 9.402 5.603 19.224 6.355 29.938 4.25 7.445-1.96 13.558-5.132 19.523-9.98C987 528 987 528 990 527l1.215 1.434c4.683 5.448 9.654 10.54 14.785 15.566-4.384 10.088-15.473 14.87-25 19l-2.84 1.324c-14.94 5.841-35.023 4.769-49.863-.851L925 562l-2.984-1.316c-18.295-9.07-29.27-24.342-36.27-43.032-6.036-18.993-4.026-39.209 4.937-56.789 8.665-16.134 22.536-28.194 39.903-34.078 9.448-2.83 18.291-3.965 28.101-3.973"/><path fill="#0f8a9c" d="M609 421c6.785 5.506 8.467 11.022 9.375 19.5-.825 7.697-4.573 12.182-10.375 17.055-3.117 2.252-5.106 3.445-9 3.445l.048 2.246c.1 8.538-.454 16.942-1.215 25.435-.968 10.804-1.853 21.599-2.337 32.436l-.115 2.493c-.179 3.93-.339 7.86-.47 11.792-.725 18.29-5.478 35.907-18.528 49.422-4.48 4.091-9.322 7.497-14.64 10.414-6.428 3.613-11.025 7.74-15.868 13.262-11.846 13.348-24.927 21.648-43.114 22.863-3.558.15-7.11.156-10.67.104-2.157-.03-4.311-.021-6.468-.008-12.598-.016-25.099-1.252-36.31-7.459l-2.006-1.04c-2.65-1.395-5.085-2.771-7.373-4.714-2.792-1.799-4.911-1.397-8.184-1.183-5.925.119-10.03-.362-14.75-4.063-4.67-4.6-7.163-7.979-7.5-14.625.035-5.863 1.415-8.636 5.48-12.754 5.693-4.57 9.698-5.156 16.922-4.969 5.555.624 8.371 3.412 11.91 7.41 2.95 3.96 3.222 6.03 2.75 10.75-.026 3.068-.022 4.606 1.899 7.036 11.614 8.974 23.838 9.428 37.885 9.557q2.632.032 5.265.103c13.351.353 24.498-.663 35.354-9.438q1.516-1.442 2.972-2.945l1.636-1.583a98 98 0 0 0 7.865-8.73c3.412-4.108 7.728-6.62 12.218-9.385 14.812-9.22 20.626-19.1 24.93-35.685.648-4.292.667-8.594.789-12.93.412-12.062 1.202-24.087 2.063-36.125l.186-2.652c.897-12.704 2.048-25.369 3.376-38.035l-1.848-.406c-4.719-1.302-7.41-4.61-9.965-8.594-2.879-5.575-3.332-10.856-2.187-17 2.633-6.146 7.013-10.994 13-14 9.727-3.652 18.044-2.012 27 3"/><path fill="#1b1f45" d="M826 425h30v140h-31q-.035-27.159-.052-54.318-.007-12.61-.023-25.22-.015-10.986-.02-21.972 0-5.82-.01-11.642-.01-5.472-.008-10.945-.002-2.98-.011-5.957l.004-3.549-.003-3.103C825 426 825 426 826 425"/><path fill="#29b082" d="M561.898 304.133c3.746 2.871 6.686 6.358 8.102 10.867.955 7.633.828 14.743-4 21-4.452 5.051-9.459 7.57-16 9-3.062.188-3.062.188-5 0l-.8 2.643c-1.183 3.309-2.606 6.05-4.395 9.068l-1.91 3.25-2.02 3.414c-15.498 26.235-15.498 26.235-19.797 55.852q.04 3.281.078 6.562c.044 3.428.094 6.856.166 10.283.067 3.323.102 6.644.131 9.967l.088 3.103c.027 7.088.027 7.088-2.847 10.984-3.344 2.326-5.638 2.8-9.694 2.874-2.787-.774-3.754-1.704-5.596-3.92-2.08-4.563-1.742-8.772-1.619-13.725l.052-3.159q.06-3.315.144-6.63c.08-3.328.125-6.656.165-9.986.28-15.6 1.45-30 9.354-43.83l1.29-2.356c4.721-8.524 9.79-16.85 14.862-25.169 2.85-4.702 5.6-9.463 8.348-14.225l-1.867-.828c-3.913-2.15-5.587-5.97-7.383-9.922-1.425-6.175-1.973-11.858 1.313-17.5 9.765-13.54 24.416-16.222 38.835-7.617"/><path fill="#139599" d="m636.875 328.563 2.15.029c8.625.293 12.622 2.73 18.413 8.908 4.517 5.163 4.865 9.277 4.777 15.973-.521 6.128-3.64 11.494-8.215 15.527-7.666 5.635-15.735 6.148-25 5-3.092-1.014-5.208-2.242-8-4-2.178-1.5-2.178-1.5-5-2-2.99.746-5.67 2.04-8.437 3.375l-2.411 1.121C593.506 378.003 582.518 384.556 572 392l-1.95 1.344c-10.062 7.693-17.093 20.205-19.624 32.43a67 67 0 0 0-.567 7.39l-.058 2.211a217 217 0 0 0-.055 4.523c-.13 3.874-.383 5.715-3.074 8.586-3.585 2.034-5.614 2.24-9.672 1.516-2.762-2.532-4.673-4.292-5.386-8.016-.064-2.319.055-4.549.261-6.859l.191-2.528c1.988-21.43 12.785-38.119 28.934-52.097 11.116-8.742 23.696-14.989 36.375-21.125l3.334-1.616 3.127-1.486 2.798-1.33C609 354 609 354 612 354l-.176-1.687c-.382-6.46 1.041-10.353 5.176-15.313 5.695-5.878 11.72-8.562 19.875-8.437"/><path fill="#3dbf7a" d="M505.5 252.688c1.824 1.109 1.824 1.109 3.5 2.312l1.707 1.203c4.202 3.23 6.695 6.406 7.98 11.547.742 7.717 1.038 13.707-3.687 20.25-3.226 3.376-6.655 6.212-11 8h-4l.105 3.094c.475 20.305-3.212 40.097-6.668 60.031l-.465 2.698q-.668 3.843-1.35 7.685l-.405 2.327c-.758 4.21-1.822 8.11-3.217 12.165-.273 3.07-.375 6.114-.46 9.195-.673 3.494-1.745 4.658-4.54 6.805-2.67 1.02-5.155 1.254-8 1-2.86-1.765-4.498-2.996-6-6-.359-5.293.02-8.25 2.225-13.154C481.925 356.367 481.754 322.29 484 295l-2.344-.902c-5.715-2.362-8.902-6.079-11.699-11.47-2.014-5.532-2.162-11.377-.105-16.925 7.135-12.523 21.809-19.627 35.648-13.015"/><path fill="#52b483" d="M807.988 605.879c7.035 3.234 11.852 7.925 14.887 15.058 2.281 7.117 1.451 12.916-1.477 19.665-3.481 5.97-9.11 9.78-15.398 12.398-8.618 1.163-16.62 1.099-23.941-4.074-4.42-4.134-8.85-9.8-9.262-15.973l-.047-3.703-.078-3.672c.538-5.873 3.011-9.685 7.14-13.765l1.958-1.981c7.524-6.18 17.033-6.655 26.218-3.953"/><path fill="#54b584" d="M1062.5 607.063c5.582 3.231 10.146 7.86 12.5 13.937.705 7.114 1.26 15.06-2.602 21.36-2.708 3.176-5.882 5.431-9.398 7.64l-2.812 1.875c-7.185 2.536-15.103 1.605-22.188-.875-6.672-3.44-10.648-8.943-13-16-.632-7.57-1.04-14.887 4-21 9.422-8.86 21.098-12.658 33.5-6.937"/><path fill="#37ba7c" d="M454 350c2.847 1.357 3.858 2.483 6 5 .75 3.313.75 3.313 0 7-1.327 2.096-2.764 3.944-4.395 5.813-12.227 16.66-8.036 44.22-7.965 63.791q.012 4.144-.014 8.287-.025 3.864.016 7.73c-.082 9.575-.082 9.575-2.96 12.667-3.551 2.267-5.541 2.378-9.682 1.712-2.753-1.796-4.526-3.053-6-6a129 129 0 0 1-.085-6.14l.022-3.917.043-4.267.022-2.178q.056-5.726.13-11.45c.049-3.904.075-7.808.097-11.713.02-3.031.058-6.062.1-9.094q.026-2.154.032-4.308c.051-14.24 3.366-26.73 8.639-39.933l1-2.535c3.078-7.395 6.026-12.425 15-10.465"/><path fill="#50b481" d="M836 606h11l1.54 2.93c3.624 6.865 7.289 13.64 11.429 20.215C861 631 861 631 861 633h2l.688-2.46c1.629-4.394 3.885-8.171 6.312-12.165q1.346-2.238 2.688-4.477l1.199-1.979c1.118-1.928 2.116-3.925 3.113-5.919h11v46h-9l-1-29c-3.532 6.775-3.532 6.775-7.06 13.552l-1.338 2.561-1.365 2.619c-2.803 5.14-2.803 5.14-5.987 6.08-3.912-.978-4.164-1.658-6.187-5A319 319 0 0 1 853 637c-.937-1.736-1.883-3.466-2.83-5.197-1.405-2.593-2.785-5.2-4.17-7.803l-1 28h-9z"/><path fill="#4fb07f" d="M1088 606c10 0 10 0 12.27 1.844l1.543 2.656 1.894 2.996 1.053 1.675c2.999 4.423 6.596 8.43 10.024 12.52l1.653 2 1.497 1.788C1119 633 1119 633 1119 635h2v-29h9v46c-9 0-9 0-11.104-1.326l-1.373-1.858-1.582-2.05-1.566-2.203-1.677-2.214a335 335 0 0 1-3.244-4.366c-1.82-2.481-3.726-4.888-5.641-7.295A113 113 0 0 1 1099 624l-1 28h-10z"/><path fill="#57b684" d="M918 606h11c3.934 8.323 7.772 16.676 11.428 25.125 2.395 5.519 4.924 10.965 7.506 16.398C949 650 949 650 949 652h-11l-3-10-22 1-4 9h-11a95 95 0 0 1 4.61-11.781l1.53-3.284 1.61-3.435c4.24-9.106 8.403-18.22 12.25-27.5"/><path fill="#52b684" d="M637 606h11l1.723 4.066q1.168 2.75 2.34 5.496l1.232 2.894a426 426 0 0 0 7.58 16.731A93.4 93.4 0 0 1 667 652h-11l-3-10h-22l-3 9c-1 1-1 1-3.285 1.098l-2.778-.035-2.785-.028L617 652c1.426-4.799 3.064-9.302 5.375-13.75 1.95-3.76 3.534-7.526 5-11.5 2.685-7.198 6.085-13.945 9.625-20.75"/><path fill="#4eb382" d="M676 606h10l.044 2.766q.093 5.103.218 10.204.051 2.205.084 4.408c.034 2.118.086 4.235.142 6.352l.08 3.857c.456 3.604 1.257 5.535 3.432 8.413 3.44 1.72 7.232 1.382 11 1 3.29-1.727 3.814-2.442 5-6a198 198 0 0 0 .316-7.074l.063-2.072q.098-3.27.183-6.542l.131-4.439q.16-5.437.307-10.873h10q.111 7.098.165 14.197.022 2.412.061 4.824c.037 2.319.054 4.637.067 6.956.015.712.03 1.425.047 2.16.002 5.364-1.153 9.46-4.805 13.472-7.627 5.908-14.09 6.344-23.535 5.391-4.907-1.638-7.818-4.278-10.437-8.687L677 641l-1-2a175 175 0 0 1-.098-7.414l.005-2.211c.005-2.333.018-4.667.03-7q.009-2.37.014-4.742.017-5.816.049-11.633"/><path fill="#f7fbfa" d="M295 506v60c-10.82 0-10.82 0-16.14-5.02-2.613-4.187-2.418-7.638-2.356-12.48l-.005-2.768q.004-2.89.034-5.779c.03-2.943.021-5.885.008-8.828q.01-2.812.025-5.625l-.008-2.658c.094-6.127 1.334-9.394 5.38-14.092 4.224-3.584 7.302-2.75 13.062-2.75"/><path fill="#f7fbfb" d="M501.375 504.75c3.526 3.022 7.215 6.377 7.898 11.168.238 5.313-.443 8.501-3.847 12.644-4.547 4.584-9.104 5.25-15.301 5.75-4.403-.09-7.796-1.427-11.125-4.312-3.151-3.669-4.836-6.813-5.5-11.625.97-6.55 3.8-10.014 8.684-14.176 5.726-3.78 13.421-2.44 19.191.551"/><path fill="#f7fbfa" d="M401 502c5.644 3.155 10.06 6.693 12 13 .519 4.875-.367 7.874-3 12-4.863 4.651-8.74 7.028-15.437 7.375-6.048-.16-9.109-2.985-13.375-7.062-2.742-4.151-3.473-7.375-3.188-12.313 1.732-5.52 5.473-8.651 10-12 4.09-2.045 8.585-1.796 13-1"/><path fill="#fafcfb" d="M804 614c3.796 2.262 7.005 5.01 9 9 .69 5.095 1.169 9.967-1.457 14.535-3.274 3.798-5.633 6.16-10.813 6.703-4.254.124-7.166.012-11.105-1.738-4.32-4.115-6.779-8.598-7.125-14.625.708-5.485 3.032-8.132 6.5-12.25 4.871-2.638 9.61-2.69 15-1.625M1055 614c3.438 1.688 3.438 1.688 6 4l2.375 2c2.627 4.85 2.578 9.624 1.625 15-2.31 4.321-5.453 7.175-10 9-4.882.693-8.882.517-13.375-1.562-4.506-4.184-6.816-7.889-7.125-14 .278-5.632 2.966-8.671 6.563-12.813 4.543-2.514 8.864-2.364 13.937-1.625"/><path fill="#56b986" d="M727 606h39v8h-14v38h-11v-38h-14z"/><path fill="#52b582" d="M953 606h39v8h-14v38h-10v-38h-15z"/><path fill="#55b585" d="M1002 605h11v47h-11z"/><path fill="#f7fbf9" d="M497 264c3.704 2.027 5.654 3.48 8 7 .224 3.115-.143 6-1 9-3.188 3.27-5.727 4.853-10.25 5.375-4.943-.494-6.288-1.913-9.75-5.375-1.641-3.282-1.789-6.48-1-10 3.594-5.077 7.79-7.129 14-6"/><path fill="#f7fbfa" d="M548.91 312.27c3.53 1.233 5.065 2.594 7.09 5.73.625 3.128.643 5.874 0 9-2.198 3.032-3.45 3.817-7 5-7.075.57-7.075.57-10.937-1.812-2.623-2.782-2.996-4.746-3.563-8.5.521-3.844.815-4.59 3.438-7.188 3.69-2.793 6.482-3.128 10.972-2.23"/><path fill="#f2f8f9" d="M592.688 428.625c3.374.024 5.144.6 7.75 2.75 2.969 3.042 3.449 3.767 4 7.938-.46 3.877-.537 4.246-3.313 6.562-4.45 3.026-6.686 3.586-12.125 3.125-2.753-1.796-4.526-3.053-6-6-.507-5.154-.507-5.154 0-8 2.438-2.937 2.438-2.937 5-5 1-1 1-1 4.688-1.375"/><path fill="#f3f9f9" d="M638.074 341.64c3.786.707 6.072 2.506 8.739 5.173 1.687 3.108 1.885 4.696 1.187 8.187-2.452 3.361-5.227 5.512-9.258 6.621-3.484.29-5.769.049-8.683-1.957-3.014-3.09-4.02-4.916-4.246-9.289 2.265-6.438 5.512-9.192 12.261-8.734"/><path fill="#eff8f3" d="M923 618c3.6 2.4 4.102 4.038 5.688 8l1.324 3.25C931 632 931 632 931 634h-14c.805-4.828 1.398-7.268 3.563-11.375l1.378-2.648z"/><path fill="#f0f8f4" d="M641 618h2q1.509 3.151 3 6.313l1.688 3.55C649 631 649 631 649 634h-14c1.768-5.472 3.654-10.75 6-16"/><path fill="#44c47c" d="m355 478-1.652.777c-6.626 3.364-11.336 7.784-16.348 13.223l-1-2c12.508-15.246 12.508-15.246 19-12"/><path fill="#4dbf8d" d="m531 303 2 1-1.426 1.574c-6.079 6.81-8.993 11.236-9.574 20.426h-1c-.69-7.485.198-12.147 5-18 1.602-1.78 3.23-3.381 5-5"/><path fill="#4cc681" d="M349 413c-1.24 3.718-2.204 3.925-5.562 5.75-5.045 2.889-9.222 6.27-13.438 10.25l-2-1c16.13-15 16.13-15 21-15"/><path fill="#c0e3d1" d="M878 622h1v30h-1l-1-24-2 1c1.875-5.875 1.875-5.875 3-7"/><path fill="#72d59d" d="M416 392v1q-4.83.749-9.66 1.488-2.795.428-5.586.867c-3.282.505-6.433.746-9.754.645 7.004-4.67 16.811-4.326 25-4"/><path fill="#545672" d="M884 479h1l1 7h-2v20h-1c-.03-3.75-.047-7.5-.062-11.25l-.026-3.223-.01-3.105-.016-2.857c.104-2.346.447-4.321 1.114-6.565"/><path fill="#45c285" d="M276 496c0 2 0 2-1.61 3.621l-2.14 1.817-2.11 1.808A150 150 0 0 1 264 508c1.172-4.836 6.592-12 12-12"/><path fill="#24a09b" d="M600 361a291 291 0 0 1-4.187 2.5l-2.356 1.406c-2.698 1.201-4.538 1.301-7.457 1.094 8.401-6.786 8.401-6.786 14-5"/><path fill="#2b3050" d="M1041 435c-1.491 3.795-3.757 5.61-7 8l-2-1a517 517 0 0 1 3.375-3.5l1.898-1.969C1039 435 1039 435 1041 435"/><path fill="#22a38e" d="M514 450h2c.25 3.313.25 3.313 0 7l-4 3z"/><path fill="#26a79e" d="m556 385 3 1-7 6c0-3 0-3 2-5.187z"/><path fill="#54c88c" d="m288 493-10 4-2-2a211 211 0 0 1 3.75-1.562l2.11-.88C284 492 284 492 288 493"/><path fill="#52cb89" d="m416 393 3 1v13h-1l-.184-2.3-.253-3.012-.247-2.989c-.234-2.793-.234-2.793-1.316-5.699"/></svg>