<?xml version="1.0" encoding="UTF-8"?>
<svg version="1.1" xmlns="http://www.w3.org/2000/svg" width="1254" height="1254">
<path d="M0 0 C413.82 0 827.64 0 1254 0 C1254 413.82 1254 827.64 1254 1254 C840.18 1254 426.36 1254 0 1254 C0 840.18 0 426.36 0 0 Z " fill="#FEFDFE" transform="translate(0,0)"/>
<path d="M0 0 C0.98388199 -0.0290593 1.96776398 -0.05811859 2.98146057 -0.08805847 C12.09774024 -0.34286971 21.21591271 -0.49514126 30.33486557 -0.61558056 C36.46093147 -0.6981267 42.58208511 -0.81466667 48.70556641 -1.01367188 C54.6270787 -1.20520227 60.54407891 -1.30690488 66.46848297 -1.34755898 C68.71917392 -1.37813601 70.96967898 -1.43995865 73.21858978 -1.53453636 C90.35000115 -2.22274969 90.35000115 -2.22274969 95.85157776 2.16473007 C99.80678387 6.43257345 102.74798626 11.18381181 105.48831367 16.29560184 C106.95854649 18.98638332 108.69420542 21.43395566 110.51269531 23.89916992 C111.55546073 25.3984063 112.59715691 26.89838703 113.63769531 28.39916992 C118.64889076 35.59247869 123.73562385 42.72526058 128.88378906 49.82104492 C132.50748217 54.82015439 136.08655754 59.84829963 139.63769531 64.89916992 C145.33664339 73.00058813 151.1278473 81.03310733 156.93945312 89.05395508 C159.94726263 93.20763796 162.94827228 97.36623197 165.95019531 101.52416992 C167.05042732 103.04762794 168.150685 104.57106742 169.25097656 106.09448242 C170.04654948 107.19604492 170.8421224 108.29760742 171.63769531 109.39916992 C167.05713493 119.76941741 156.01831384 128.11808839 148.01269531 136.02416992 C138.78988978 145.10976802 138.78988978 145.10976802 130.10449219 154.70532227 C127.91853558 157.22965098 125.57764694 159.55428612 123.20019531 161.89916992 C122.33523438 162.75510742 121.47027344 163.61104492 120.57910156 164.49291992 C119.9384375 165.12198242 119.29777344 165.75104492 118.63769531 166.39916992 C114.19206004 162.24382799 110.70100508 157.63186092 107.13769531 152.71166992 C106.52676025 151.87514893 105.9158252 151.03862793 105.28637695 150.17675781 C103.39825616 147.58798145 101.51696568 144.99437641 99.63769531 142.39916992 C99.07421387 141.6221875 98.51073242 140.84520508 97.93017578 140.04467773 C94.69399208 135.58011231 91.4680527 131.10824652 88.24658203 126.63305664 C85.54757403 122.88557209 82.84230647 119.14261147 80.13769531 115.39916992 C79.05433227 113.89919138 77.97099893 112.39919138 76.88769531 110.89916992 C76.35144531 110.15666992 75.81519531 109.41416992 75.26269531 108.64916992 C73.63769531 106.39916992 72.01269531 104.14916992 70.38769531 101.89916992 C69.58223267 100.78396973 69.58223267 100.78396973 68.76049805 99.64624023 C67.68434611 98.15610899 66.60833546 96.6658757 65.5324707 95.17553711 C62.71545122 91.27366818 59.89551876 87.37394889 57.07128906 83.47729492 C56.48605469 82.66905273 55.90082031 81.86081055 55.29785156 81.02807617 C54.18287903 79.4883522 53.06704968 77.94924818 51.95019531 76.41088867 C49.09094349 72.46031936 46.31172896 68.47755217 43.63769531 64.39916992 C41.35259799 67.28856624 39.5967551 70.20643789 37.92285156 73.48510742 C37.40803223 74.48646729 36.89321289 75.48782715 36.36279297 76.51953125 C35.81413574 77.59356201 35.26547852 78.66759277 34.70019531 79.77416992 C30.47662475 87.97068028 26.20180158 96.12973668 21.76269531 104.21166992 C17.16774782 112.57936766 12.63617525 120.97930972 8.13769531 129.39916992 C3.2262655 138.58966923 -1.72678094 147.75572548 -6.7355957 156.89355469 C-9.59268803 162.11867041 -12.41467571 167.36132886 -15.20605469 172.62182617 C-15.70591133 173.56369026 -15.70591133 173.56369026 -16.21586609 174.52458191 C-16.89917109 175.81232583 -17.58245438 177.10008126 -18.26571655 178.3878479 C-18.77759018 179.3525148 -18.77759018 179.3525148 -19.29980469 180.33666992 C-19.81155746 181.30121597 -19.81155746 181.30121597 -20.33364868 182.2852478 C-24.7630225 190.62508889 -29.29288434 198.89201121 -33.98730469 207.08666992 C-39.32253794 216.40642359 -44.30153856 225.88350089 -49.20922852 235.43432617 C-52.77689527 242.3690124 -56.41627558 249.2536229 -60.17480469 256.08666992 C-65.0890201 265.02379698 -69.89850769 274.01287449 -74.67480469 283.02416992 C-76.13691763 285.78204958 -77.59913399 288.53987437 -79.06152344 291.29760742 C-79.42291916 291.97914383 -79.78431488 292.66068024 -80.15666199 293.36286926 C-85.57609949 303.57804409 -91.04812794 313.76506225 -96.51513672 323.95483398 C-98.3915347 327.45367389 -100.26599605 330.95354684 -102.13964844 334.45385742 C-108.74837565 346.79910593 -115.37228701 359.13596624 -122.01831055 371.46118164 C-126.87629288 380.47856831 -131.6922383 389.51801673 -136.50421143 398.55999756 C-141.49284259 407.9309953 -146.53253722 417.27224983 -151.64599609 426.57592773 C-152.09507324 427.39416016 -152.54415039 428.21239258 -153.00683594 429.05541992 C-153.39202393 429.75473633 -153.77721191 430.45405273 -154.17407227 431.17456055 C-155.62353703 433.88824925 -156.98643736 436.64743527 -158.36230469 439.39916992 C-187.73230469 439.39916992 -217.10230469 439.39916992 -247.36230469 439.39916992 C-245.99670983 435.98518278 -244.6498312 432.88554146 -242.96386719 429.65307617 C-242.49102295 428.74533447 -242.01817871 427.83759277 -241.53100586 426.90234375 C-241.02158447 425.93192139 -240.51216309 424.96149902 -239.98730469 423.96166992 C-239.45274658 422.94032959 -238.91818848 421.91898926 -238.36743164 420.86669922 C-234.34620445 413.21039112 -230.23488864 405.60645611 -226.07568359 398.02441406 C-221.95546235 390.5087638 -217.90150551 382.95855598 -213.86230469 375.39916992 C-208.90139541 366.11759503 -203.90252437 356.85811587 -198.85058594 347.62573242 C-194.99070458 340.56648416 -191.17148205 333.48589078 -187.36230469 326.39916992 C-182.57522921 317.493864 -177.75728755 308.60642321 -172.90576172 299.73608398 C-168.98382168 292.55777676 -165.10742209 285.35552353 -161.23730469 278.14916992 C-156.92162895 270.11638975 -152.56506396 262.11079568 -148.11303711 254.15283203 C-144.69859185 248.03785209 -141.37210748 241.87709721 -138.04980469 235.71166992 C-133.72943953 227.69622213 -129.31327033 219.7448674 -124.79980469 211.83666992 C-119.94736247 203.32729369 -115.3570147 194.71116195 -110.87060547 186.00415039 C-107.45156597 179.40144409 -103.86947391 172.91369081 -100.17480469 166.46166992 C-94.87647121 157.20570049 -89.83602611 147.83175166 -84.86230469 138.39916992 C-80.00978509 129.19766622 -75.10222115 120.04860863 -69.92480469 111.02416992 C-64.03590965 100.75401954 -58.50425277 90.30872087 -52.98919678 79.83508301 C-48.38350112 71.08907308 -43.75347661 62.36703967 -38.91186523 53.74853516 C-35.54242622 47.74823354 -32.2592207 41.70314828 -28.98730469 35.64916992 C-28.44517334 34.64668213 -27.90304199 33.64419434 -27.34448242 32.61132812 C-26.24326597 30.57498408 -25.14211078 28.5386069 -24.04101562 26.50219727 C-21.23695936 21.31901588 -18.42734538 16.13889323 -15.61230469 10.96166992 C-15.09877441 10.01388672 -14.58524414 9.06610352 -14.05615234 8.08959961 C-13.34918213 6.79070801 -13.34918213 6.79070801 -12.62792969 5.46557617 C-12.21317383 4.70188721 -11.79841797 3.93819824 -11.37109375 3.15136719 C-8.92183599 -1.1028252 -4.44629486 0.1168666 0 0 Z " fill="#122741" transform="translate(514.3623046875,385.600830078125)"/>
<path d="M0 0 C5.36823114 0.28045992 10.740083 0.4003845 16.11358643 0.5355835 C26.58443971 0.82185485 37.03958431 1.28003107 47.49835205 1.85394287 C45.70303096 5.73344003 43.3976815 8.12355581 40.31085205 11.10394287 C37.10509745 14.23506067 33.95931993 17.36924194 31.06085205 20.79144287 C28.04482379 24.33073387 24.80387304 27.58888732 21.49835205 30.85394287 C18.21367215 34.09846163 14.99101201 37.33316645 11.99835205 40.85394287 C8.52425711 44.94111339 4.72033826 48.65923284 0.9072876 52.42547607 C-2.49267363 55.79978932 -5.68935687 59.27891467 -8.7946167 62.92816162 C-11.4938618 65.9733054 -14.42225858 68.78236988 -17.3180542 71.63909912 C-19.28139466 73.63053748 -21.12244464 75.66696865 -22.93914795 77.79144287 C-25.65784043 80.96430207 -28.5291647 83.91732669 -31.50164795 86.85394287 C-34.41218596 89.72951947 -37.22588817 92.61268381 -39.87664795 95.72894287 C-42.91595518 99.28680489 -46.17528489 102.56836281 -49.50164795 105.85394287 C-53.4006089 109.705159 -57.10989097 113.61816021 -60.6618042 117.79534912 C-63.45655955 120.92238961 -66.46192628 123.8350388 -69.44622803 126.7789917 C-72.76246621 130.06776147 -75.86171318 133.47573357 -78.89227295 137.02581787 C-80.52751229 138.88332275 -82.23646588 140.62000297 -84.00164795 142.35394287 C-86.33287827 144.64409424 -88.51133359 146.98849888 -90.62664795 149.47894287 C-94.39603898 153.86235235 -98.48693482 157.89691709 -102.61932373 161.93450928 C-105.47968649 164.74951099 -108.19957245 167.6206598 -110.81414795 170.66644287 C-115.72221132 176.34631687 -121.12772412 181.52542069 -126.4743042 186.78753662 C-130.76686255 191.03875412 -134.8737178 195.35444932 -138.80828857 199.93792725 C-142.30149539 203.89044845 -146.12954992 207.5204448 -149.8961792 211.20941162 C-153.01507077 214.28955919 -156.02078939 217.40208325 -158.87664795 220.72894287 C-163.75928225 226.39148051 -169.14900251 231.54636292 -174.4743042 236.78753662 C-178.06342438 240.34209063 -181.59434692 243.88711394 -184.87664795 247.72894287 C-190.06855861 253.77712683 -195.86120489 259.26900528 -201.53143311 264.86322021 C-206.82000431 270.08727595 -212.01475178 275.32058601 -216.84735107 280.97698975 C-220.5223248 285.14658803 -224.57492275 288.96412812 -228.54071045 292.85394287 C-231.74618139 296.0222848 -234.85454991 299.20765465 -237.78289795 302.63519287 C-243.01436541 308.70891473 -248.82901446 314.23724638 -254.53143311 319.86322021 C-259.7789364 325.04670902 -264.92748849 330.23975563 -269.72235107 335.85198975 C-274.25787474 340.95507619 -279.25721171 345.64300568 -284.11883545 350.43206787 C-287.76278035 354.04278531 -291.37308982 357.62477217 -294.68914795 361.54144287 C-301.15562911 369.08314689 -308.48593014 375.8886705 -315.54071045 382.87249756 C-325.02273194 392.20444904 -325.02273194 392.20444904 -333.93914795 402.06878662 C-337.76893114 406.44431392 -342.03896107 410.42636667 -346.1852417 414.49847412 C-349.50824443 417.78542257 -352.74816102 421.07874572 -355.78289795 424.63519287 C-356.33205872 425.24260315 -356.88121948 425.85001343 -357.44702148 426.47583008 C-359.59811959 428.89304425 -359.59811959 428.89304425 -361.64880371 431.84973145 C-365.78122829 437.18751668 -369.7260525 440.91683902 -376.59686279 441.91009521 C-382.87406451 442.39621241 -389.13682156 442.20534582 -395.42352295 442.02581787 C-397.73803282 442.00340386 -400.05260007 441.98633768 -402.3671875 441.97436523 C-408.42511419 441.92879961 -414.47952383 441.81115593 -420.53607178 441.67791748 C-426.72984242 441.55460369 -432.92418803 441.50023682 -439.11883545 441.43988037 C-451.24797515 441.31163208 -463.3745178 441.10714564 -475.50164795 440.85394287 C-474.5628825 439.74829445 -473.6226011 438.64393307 -472.68170166 437.5401001 C-472.15824913 436.92496803 -471.6347966 436.30983597 -471.09548187 435.67606354 C-468.73457443 432.97700049 -466.21362623 430.46075319 -463.65789795 427.94769287 C-463.12571655 427.4192981 -462.59353516 426.89090332 -462.04522705 426.34649658 C-459.80260563 424.11999139 -457.55397617 421.89959162 -455.30584717 419.6786499 C-453.65023675 418.04129106 -451.99699655 416.40159795 -450.34539795 414.76019287 C-449.82115234 414.23989502 -449.29690674 413.71959717 -448.7567749 413.18353271 C-445.9856669 410.41197984 -443.34647371 407.58976728 -440.84539795 404.57269287 C-440.07196045 403.67550537 -439.29852295 402.77831787 -438.50164795 401.85394287 C-437.84164795 401.85394287 -437.18164795 401.85394287 -436.50164795 401.85394287 C-436.13712918 401.00165667 -436.13712918 401.00165667 -435.76524639 400.13215256 C-434.26147206 397.42091683 -432.48196692 395.5915209 -430.28407288 393.40258789 C-429.39953934 392.51675018 -428.5150058 391.63091248 -427.60366821 390.7182312 C-426.6209378 389.74417371 -425.63811612 388.77020829 -424.6552124 387.79632568 C-423.62151652 386.76483168 -422.58826854 385.73288866 -421.55543518 384.70053101 C-419.3309843 382.47901268 -417.10341387 380.2606875 -414.87337685 378.04477692 C-411.34191245 374.53560744 -407.81757565 371.01933759 -404.29417419 367.5020752 C-398.71417933 361.93346411 -393.12953569 356.36954211 -387.54284781 350.80764651 C-377.55529078 340.86434948 -367.57318712 330.91558587 -357.59641999 320.96146274 C-354.09862129 317.47203328 -350.59803382 313.98543352 -347.09512198 310.50113726 C-344.90698215 308.32371093 -342.72092994 306.14419731 -340.53536797 303.96418381 C-339.52813736 302.96039683 -338.52003762 301.95748101 -337.51096344 300.95554733 C-332.49230799 295.97159733 -327.60672605 290.94853928 -323.00088787 285.57958603 C-320.93514307 283.20188895 -318.73757165 280.97755542 -316.50360107 278.75823975 C-315.58574829 277.84369019 -314.66789551 276.92914062 -313.722229 275.98687744 C-313.24341782 275.51218521 -312.76460663 275.03749298 -312.27128601 274.54841614 C-310.74570818 273.03581955 -309.22346709 271.51993086 -307.70196533 270.00323486 C-303.92547812 266.23998486 -300.14351284 262.48225619 -296.36169434 258.72436523 C-293.15404927 255.53658619 -289.948555 252.34667245 -286.74577332 249.15400696 C-285.25961106 247.67423731 -283.77042799 246.19755722 -282.28106689 244.7210083 C-277.77544441 240.23160091 -273.43095555 235.6961201 -269.29156494 230.86871338 C-265.60179006 226.71542044 -261.60327783 222.85597282 -257.65789795 218.94769287 C-256.23973145 217.53531355 -254.82156788 216.12293126 -253.40357208 214.71038055 C-250.4409835 211.76082263 -247.47380774 208.81587975 -244.50744629 205.87011719 C-242.05583764 203.43517181 -239.60527464 200.99919471 -237.1572876 198.56060791 C-235.33096366 196.74173674 -233.50239434 194.92511635 -231.67120361 193.11114502 C-227.33512688 188.7921649 -223.17545421 184.40686564 -219.18804932 179.76519775 C-216.22438548 176.40637874 -213.03141794 173.28138036 -209.84539795 170.13519287 C-208.78645325 169.0819281 -208.78645325 169.0819281 -207.70611572 168.00738525 C-204.7226742 165.04010521 -201.73324085 162.07888924 -198.74432373 159.11712646 C-196.54674216 156.93775822 -194.35226857 154.7552934 -192.15789795 152.57269287 C-191.49415161 151.91724487 -190.83040527 151.26179687 -190.14654541 150.58648682 C-186.98232564 147.43866093 -183.93156836 144.24748468 -181.01531982 140.86761475 C-177.40598333 136.68652729 -173.55455161 132.79680552 -169.62664795 128.91644287 C-168.53440918 127.82988403 -168.53440918 127.82988403 -167.42010498 126.72137451 C-164.34107844 123.65851863 -161.25606472 120.60171976 -158.17156982 117.54437256 C-155.90449336 115.2955017 -153.64051829 113.04354049 -151.37664795 110.79144287 C-150.34821777 109.77546021 -150.34821777 109.77546021 -149.29901123 108.73895264 C-146.18776369 105.64333376 -143.17708905 102.52291293 -140.32977295 99.18206787 C-135.5828413 93.68312723 -130.38544659 88.62707255 -125.23413086 83.51126099 C-123.33892902 81.62898112 -121.44700742 79.74345669 -119.55584717 77.8571167 C-114.86111117 73.17565382 -110.16091311 68.49968742 -105.46087646 63.82354736 C-101.47819165 59.8606876 -97.49762635 55.89572109 -93.51977539 51.92800903 C-91.6679776 50.08262928 -89.81316346 48.24031993 -87.95819092 46.39813232 C-78.04816004 36.54602184 -78.04816004 36.54602184 -69.21243286 25.74124146 C-49.91281553 -0.3994677 -31.13273063 -1.8032351 0 0 Z " fill="#138C76" transform="translate(877.5016479492188,384.14605712890625)"/>
<path d="M0 0 C0.66 0 1.32 0 2 0 C2.5576001 1.04788696 2.5576001 1.04788696 3.12646484 2.11694336 C12.36647589 19.47912562 12.36647589 19.47912562 22.17382812 36.52416992 C25.85863613 42.70098561 29.37229278 48.96843417 32.875 55.25 C37.17460027 62.95715771 41.48994165 70.65359356 45.875 78.3125 C46.3503418 79.14273682 46.82568359 79.97297363 47.31542969 80.82836914 C48.87627035 83.552638 50.43812169 86.27632593 52 89 C54.71009367 93.72816037 57.41872625 98.45715212 60.125 103.1875 C60.47024719 103.79092224 60.81549438 104.39434448 61.17120361 105.01605225 C65.64463859 112.83818636 70.07415695 120.68227199 74.42773438 128.57177734 C77.43810182 134.01773742 80.52370593 139.4178981 83.625 144.8125 C88.8455378 153.90262826 93.92086422 163.06938415 98.97097778 172.25473022 C103.96555194 181.33731648 109.01972242 190.38351284 114.13647461 199.39794922 C118.30058292 206.74170065 122.4075659 214.1160975 126.5 221.5 C131.67688561 230.83848824 136.89508453 240.15190229 142.15844727 249.44189453 C146.10443852 256.40866828 150.02729836 263.3880785 153.9375 270.375 C154.51677246 271.40979492 155.09604492 272.44458984 155.69287109 273.51074219 C158.6685307 278.82813448 161.64063812 284.14748973 164.609375 289.46875 C165.80186455 291.60428885 166.99457048 293.73970689 168.1875 295.875 C168.76250244 296.90488037 169.33750488 297.93476074 169.92993164 298.99584961 C174.12970317 306.49779093 178.41379003 313.947585 182.80151367 321.34130859 C186 326.78499736 186 326.78499736 186 329 C155.97 329 125.94 329 95 329 C95 328.34 95 327.68 95 327 C94.34 327 93.68 327 93 327 C89.71428571 319.57142857 89.71428571 319.57142857 89 316 C88.34 316 87.68 316 87 316 C86.56171875 315.08863281 86.1234375 314.17726563 85.671875 313.23828125 C80.42986184 302.47850836 74.58426559 292.12709605 68.59423828 281.76953125 C65.94981557 277.17560611 63.35148704 272.55582979 60.75 267.9375 C56.57701503 260.53755792 52.37549044 253.15461918 48.15063477 245.78417969 C41.49259519 234.16885553 34.92078771 222.51180058 28.4362793 210.79833984 C23.95088389 202.69870645 19.41623025 194.62853855 14.84960938 186.57446289 C11.41668263 180.51682145 8.01108419 174.44458574 4.61938477 168.36376953 C-0.21906718 159.69103564 -5.10051775 151.05656568 -10.17700195 142.52099609 C-14.47904472 135.2548206 -18.57482298 127.87445534 -22.6875 120.5 C-26.88933077 112.96944615 -31.14595046 105.47278896 -35.43847656 97.99365234 C-40.17503571 89.72605964 -44.82259162 81.4091771 -49.45703125 73.08398438 C-50.02035156 72.07400391 -50.58367188 71.06402344 -51.1640625 70.0234375 C-51.66373535 69.12544434 -52.1634082 68.22745117 -52.67822266 67.30224609 C-53.71665087 65.493532 -54.84311029 63.73533456 -56 62 C-55.79143807 57.48192384 -53.94950139 55.48396459 -50.7734375 52.41796875 C-49.90589844 51.56783203 -49.03835938 50.71769531 -48.14453125 49.84179688 C-47.23058594 48.96587891 -46.31664062 48.08996094 -45.375 47.1875 C-38.31802914 40.42696683 -38.31802914 40.42696683 -31.71875 33.23046875 C-26.25148371 26.82994382 -20.10544322 21.03972406 -14.125 15.125 C-11.66640929 12.69296814 -9.21113697 10.25765523 -6.7578125 7.8203125 C-6.19434113 7.26513947 -5.63086975 6.70996643 -5.05032349 6.13796997 C-2.16586894 3.34276325 -2.16586894 3.34276325 0 0 Z " fill="#12A98E" transform="translate(856,496)"/>
<path d="M0 0 C45.21 0 90.42 0 137 0 C142.445 9.9 142.445 9.9 148 20 C150.33573884 24.07609327 152.67883557 28.1402887 155.0625 32.1875 C155.64467285 33.18289795 156.2268457 34.1782959 156.82666016 35.20385742 C159.56546675 39.88193154 162.32256616 44.54801289 165.11328125 49.1953125 C165.81795532 50.37444214 165.81795532 50.37444214 166.53686523 51.57739258 C167.40418257 53.02608629 168.27706161 54.47147048 169.15649414 55.9128418 C172 60.66572284 172 60.66572284 172 64 C155.21492184 64.61000879 138.43348342 65.0670577 121.63996983 65.34711647 C113.84009446 65.48067696 106.04713728 65.66231773 98.25170898 65.96142578 C91.44869885 66.2223284 84.6506949 66.38868526 77.84282154 66.44630086 C74.24159045 66.47996079 70.65466145 66.5575687 67.05807686 66.74898148 C45.38456352 67.85752169 45.38456352 67.85752169 38.18384933 61.52236176 C33.00786732 55.35263914 29.31380711 48.60882293 25.75111198 41.39063644 C22.91022233 35.88988945 19.44914601 30.81982054 16 25.6875 C14.77744842 23.81412878 13.55702616 21.93936416 12.33984375 20.0625 C8.82499717 14.69968256 5.17848029 9.44034913 1.44140625 4.23046875 C0 2 0 2 0 0 Z " fill="#102641" transform="translate(704,673)"/>
<path d="M0 0 C5.36823114 0.28045992 10.740083 0.4003845 16.11358643 0.5355835 C26.58443971 0.82185485 37.03958431 1.28003107 47.49835205 1.85394287 C46.00262712 5.02877664 44.6072673 6.87630822 41.87335205 9.10394287 C41.24171143 9.62472412 40.6100708 10.14550537 39.95928955 10.68206787 C39.47718018 11.06878662 38.9950708 11.45550537 38.49835205 11.85394287 C39.62286932 8.88200437 40.72128996 6.519536 42.49835205 3.85394287 C41.59488037 3.93048096 40.69140869 4.00701904 39.76055908 4.08587646 C30.01327417 4.80893395 20.31172605 4.8828358 10.54225922 4.7372818 C8.35051019 4.70528597 6.15875372 4.67835437 3.96691895 4.6529541 C2.47479199 4.63535672 0.98266552 4.61771724 -0.50946045 4.60003662 C-1.25576344 4.59120075 -2.00206642 4.58236488 -2.77098465 4.57326126 C-6.6016176 4.52543255 -10.43139068 4.46468438 -14.26141357 4.38079834 C-18.02343516 4.29938222 -21.78452039 4.25270137 -25.54732895 4.22874069 C-26.96436722 4.21342396 -28.38133341 4.18559937 -29.79785538 4.14439774 C-38.98063258 3.7437824 -38.98063258 3.7437824 -46.84661865 7.82244873 C-48.09097856 9.14222565 -49.30847191 10.48771682 -50.50164795 11.85394287 C-51.98387753 13.30809374 -53.4739782 14.75425222 -54.97064209 16.19354248 C-56.57871578 17.79509779 -58.1839862 19.39947149 -59.7868042 21.00628662 C-60.6467247 21.8652504 -61.5066452 22.72421417 -62.3926239 23.60920715 C-64.19980656 25.41571302 -66.00574187 27.22346749 -67.81048584 29.03240967 C-70.55603188 31.78331097 -73.30687341 34.52883508 -76.05828857 37.27386475 C-77.82228114 39.03851819 -79.58596345 40.80348184 -81.3493042 42.56878662 C-82.56989281 43.78633888 -82.56989281 43.78633888 -83.81513977 45.02848816 C-87.33186364 48.55952522 -90.77385229 52.10679395 -94.02679443 55.88348389 C-97.88676046 60.36491781 -102.04867799 64.50858607 -106.25164795 68.66644287 C-107.47706299 69.88617798 -107.47706299 69.88617798 -108.72723389 71.1305542 C-112.18859837 74.57571627 -115.65593386 78.01484577 -119.1227417 81.45452881 C-121.66779983 83.98140795 -124.20977926 86.51135602 -126.75164795 89.04144287 C-127.52476318 89.80625977 -128.29787842 90.57107666 -129.09442139 91.35906982 C-133.21962107 95.46579712 -137.15148866 99.66557161 -140.9491272 104.0765686 C-142.9857808 106.40819328 -145.14395305 108.59227881 -147.3493042 110.76409912 C-148.20201904 111.60907959 -149.05473389 112.45406006 -149.93328857 113.324646 C-150.80147217 114.17993896 -151.66965576 115.03523193 -152.56414795 115.91644287 C-160.17248797 123.38324276 -160.17248797 123.38324276 -167.20281982 131.38519287 C-169.13614828 133.57145301 -171.38187826 135.33248827 -173.63011169 137.18408203 C-175.51196559 138.86314869 -177.09773334 140.61606107 -178.7255249 142.54046631 C-182.46250007 146.86462668 -186.42728301 150.90734528 -190.4821167 154.93206787 C-191.2173909 155.66592712 -191.9526651 156.39978638 -192.71022034 157.15588379 C-195.03416642 159.4742884 -197.36157968 161.78917538 -199.68914795 164.10394287 C-201.26164655 165.67141752 -202.83391422 167.23912386 -204.40594482 168.80706787 C-207.28171835 171.67471272 -210.1587706 174.54105998 -213.03753662 177.40570068 C-215.52904947 179.88498866 -218.01802589 182.36674497 -220.50164795 184.85394287 C-221.49164795 184.52394287 -222.48164795 184.19394287 -223.50164795 183.85394287 C-223.02859726 183.38311279 -222.55554657 182.91228271 -222.06816101 182.42718506 C-217.11688396 177.49814067 -212.16921711 172.56549326 -207.22357178 167.63079834 C-205.38073376 165.79296935 -203.5369967 163.95604138 -201.69232178 162.12005615 C-199.03130387 159.47125464 -196.37360392 156.81916162 -193.7164917 154.16644287 C-192.8995433 153.35465576 -192.08259491 152.54286865 -191.2408905 151.70648193 C-187.0649302 147.53092586 -183.07530127 143.27452135 -179.22358704 138.79949951 C-176.17576266 135.35587308 -172.896915 132.14712855 -169.62664795 128.91644287 C-168.89848877 128.19207031 -168.17032959 127.46769775 -167.42010498 126.72137451 C-164.34107844 123.65851863 -161.25606472 120.60171976 -158.17156982 117.54437256 C-155.90449336 115.2955017 -153.64051829 113.04354049 -151.37664795 110.79144287 C-150.69102783 110.11412109 -150.00540771 109.43679932 -149.29901123 108.73895264 C-146.18776369 105.64333376 -143.17708905 102.52291293 -140.32977295 99.18206787 C-135.5828413 93.68312723 -130.38544659 88.62707255 -125.23413086 83.51126099 C-123.33892902 81.62898112 -121.44700742 79.74345669 -119.55584717 77.8571167 C-114.86111117 73.17565382 -110.16091311 68.49968742 -105.46087646 63.82354736 C-101.47819165 59.8606876 -97.49762635 55.89572109 -93.51977539 51.92800903 C-91.6679776 50.08262928 -89.81316346 48.24031993 -87.95819092 46.39813232 C-78.04816004 36.54602184 -78.04816004 36.54602184 -69.21243286 25.74124146 C-49.91281553 -0.3994677 -31.13273063 -1.8032351 0 0 Z " fill="#19A88D" transform="translate(877.5016479492188,384.14605712890625)"/>
<path d="M0 0 C0.33 0.99 0.66 1.98 1 3 C-0.375 4.5 -0.375 4.5 -2 6 C-2.66 6 -3.32 6 -4 6 C-4.22204102 6.54873779 -4.44408203 7.09747559 -4.67285156 7.6628418 C-6.40671585 10.71624187 -8.73991497 12.96778552 -11.234375 15.39453125 C-12.00784271 16.16019661 -12.00784271 16.16019661 -12.79693604 16.94132996 C-14.44325938 18.56989761 -16.09610023 20.19163001 -17.75 21.8125 C-19.91485408 23.9405912 -22.07639652 26.07196817 -24.234375 28.20703125 C-25.00763878 28.97136726 -25.00763878 28.97136726 -25.79652405 29.75114441 C-29.41062287 33.34870577 -32.73376215 37.08903983 -36 41 C-37.66270287 42.33827304 -39.32916181 43.67189785 -41 45 C-42.68732277 46.98260426 -44.35366057 48.9832342 -46 51 C-49.4545597 54.63171661 -53.15275419 57.79396183 -57 61 C-60.63182758 64.44558001 -63.90688013 68.13635035 -67.15625 71.9375 C-71.62420132 76.93554724 -76.57854974 81.39985344 -81.5390625 85.89453125 C-82.04179687 86.35214844 -82.54453125 86.80976562 -83.0625 87.28125 C-83.50722656 87.68408203 -83.95195312 88.08691406 -84.41015625 88.50195312 C-86.12805682 90.12066288 -87.79708655 91.7840013 -89.46221924 93.45675659 C-91.28480792 95.28581964 -93.11466883 97.10746312 -94.94482422 98.92895508 C-99.04167426 103.00788284 -103.13536908 107.08996233 -107.22802734 111.1730957 C-108.98819499 112.92823058 -110.74925857 114.68246743 -112.51123047 116.43579102 C-115.06978578 118.98213994 -117.62502982 121.5317727 -120.1796875 124.08203125 C-120.95907684 124.85625931 -121.73846619 125.63048737 -122.54147339 126.42817688 C-126.70832244 130.59460298 -130.70868258 134.84218898 -134.540802 139.31938171 C-136.269212 141.31006252 -138.09853482 143.17459343 -140 145 C-137.69 145.66 -135.38 146.32 -133 147 C-133 147.66 -133 148.32 -133 149 C-121.69103401 148.91574958 -110.38221141 148.82092645 -99.07345009 148.71247292 C-93.8227568 148.66245268 -88.5720842 148.6161233 -83.32128906 148.578125 C-78.2572837 148.54134436 -73.19344905 148.49500444 -68.12958908 148.44193649 C-66.19425821 148.42335402 -64.25889069 148.40826043 -62.3235054 148.39665604 C-59.61995072 148.37985925 -56.91679033 148.35084079 -54.21337891 148.31884766 C-53.40705521 148.31668747 -52.60073151 148.31452728 -51.76997375 148.31230164 C-47.41871732 148.41059815 -47.41871732 148.41059815 -44 146 C-43.21625 145.175 -42.4325 144.35 -41.625 143.5 C-39.39557015 141.37673348 -37.80411816 140.14241851 -35 139 C-37.12132095 143.61032772 -39.80294877 147.09278234 -44 150 C-47.46911284 150.9505899 -50.76259827 150.88975887 -54.34155273 150.79467773 C-55.86464302 150.79621101 -55.86464302 150.79621101 -57.41850281 150.79777527 C-60.75795041 150.79291784 -64.09462686 150.73856063 -67.43359375 150.68359375 C-69.75527961 150.67053108 -72.07698482 150.66057007 -74.3986969 150.65357971 C-80.49671096 150.62690747 -86.59354993 150.55818974 -92.69110107 150.48065186 C-98.91825465 150.40892612 -105.1455989 150.37704812 -111.37304688 150.34179688 C-123.58254633 150.26682004 -135.79117528 150.14741416 -148 150 C-147.06123455 148.89435158 -146.12095315 147.7899902 -145.18005371 146.68615723 C-144.39487492 145.76345913 -144.39487492 145.76345913 -143.59383392 144.82212067 C-141.23292648 142.12305762 -138.71197828 139.60681032 -136.15625 137.09375 C-135.6240686 136.56535522 -135.09188721 136.03696045 -134.5435791 135.49255371 C-132.30095769 133.26604851 -130.05232822 131.04564875 -127.80419922 128.82470703 C-126.1485888 127.18734819 -124.4953486 125.54765508 -122.84375 123.90625 C-122.31950439 123.38595215 -121.79525879 122.8656543 -121.25512695 122.32958984 C-118.48401895 119.55803697 -115.84482577 116.73582441 -113.34375 113.71875 C-112.5703125 112.8215625 -111.796875 111.924375 -111 111 C-110.34 111 -109.68 111 -109 111 C-108.75874201 110.43370251 -108.51748402 109.86740501 -108.26891518 109.28394699 C-106.74335789 106.53806449 -104.92246022 104.67674017 -102.69735718 102.45684814 C-101.79429337 101.551035 -100.89122955 100.64522186 -99.96080017 99.71195984 C-98.95752037 98.71575778 -97.95414497 97.71965198 -96.95068359 96.72363281 C-95.8957852 95.66929867 -94.84132723 94.61452372 -93.78727722 93.55934143 C-90.92624565 90.6977359 -88.0590883 87.84233993 -85.19079924 84.98801136 C-82.19366458 82.0033768 -79.20219042 79.01307984 -76.21011353 76.02337646 C-70.54408256 70.36356237 -64.8729725 64.70886597 -59.20002425 59.05598617 C-52.74150354 52.61981797 -46.28865902 46.17797174 -39.83628726 39.73564005 C-26.56383508 26.48409457 -13.28426419 13.23970374 0 0 Z " fill="#225F5B" transform="translate(550,675)"/>
<path d="M0 0 C1.07187057 0.0282486 2.14374115 0.05649719 3.24809265 0.08560181 C16.82828906 0.46939538 30.38355166 1.14224317 43.9375 2.0625 C42.44177507 5.23733377 41.04641525 7.08486535 38.3125 9.3125 C37.36503906 10.09367187 37.36503906 10.09367187 36.3984375 10.890625 C35.91632813 11.27734375 35.43421875 11.6640625 34.9375 12.0625 C36.06201727 9.0905615 37.16043791 6.72809313 38.9375 4.0625 C37.58229248 4.17730713 37.58229248 4.17730713 36.19970703 4.29443359 C26.45242212 5.01749108 16.750874 5.09139293 6.98140717 4.94583893 C4.78965814 4.9138431 2.59790167 4.8869115 0.40606689 4.86151123 C-1.08606006 4.84391385 -2.57818653 4.82627437 -4.0703125 4.80859375 C-4.81661549 4.79975788 -5.56291847 4.79092201 -6.3318367 4.78181839 C-10.16246965 4.73398968 -13.99224273 4.67324151 -17.82226562 4.58935547 C-21.58428721 4.50793935 -25.34537244 4.4612585 -29.108181 4.43729782 C-30.52521927 4.42198108 -31.94218546 4.3941565 -33.35870743 4.35295486 C-42.66856164 3.97649314 -42.66856164 3.97649314 -50.59716797 8.21850586 C-51.7805657 9.47375906 -52.93760643 10.75456069 -54.0625 12.0625 C-55.12249878 13.10029996 -56.18989671 14.13061304 -57.265625 15.15209961 C-58.28382137 16.17044982 -59.29941123 17.1914122 -60.3125 18.21484375 C-61.12787231 19.03233849 -61.12787231 19.03233849 -61.9597168 19.86634827 C-63.66304815 21.57519217 -65.36283326 23.28751197 -67.0625 25 C-68.23023374 26.17276009 -69.39820074 27.34528798 -70.56640625 28.51757812 C-73.40113234 31.36321689 -76.23268824 34.21197453 -79.0625 37.0625 C-79.7225 36.4025 -80.3825 35.7425 -81.0625 35.0625 C-74.20235939 21.82033686 -64.47313306 8.45782182 -50.20398712 2.74051666 C-34.63083622 -2.19010173 -16.10182771 -0.42731027 0 0 Z " fill="#5CDFBD" transform="translate(881.0625,383.9375)"/>
<path d="M0 0 C0.66 0.33 1.32 0.66 2 1 C1.46109131 1.53367187 0.92218262 2.06734375 0.36694336 2.6171875 C-2.11226236 5.07539426 -4.58739599 7.53766366 -7.0625 10 C-7.91005859 10.83917969 -8.75761719 11.67835938 -9.63085938 12.54296875 C-14.11927695 17.01405653 -18.46744848 21.53692143 -22.58007812 26.35742188 C-24.29235766 28.33820191 -26.11164021 30.1871746 -28 32 C-25.69 32.66 -23.38 33.32 -21 34 C-21 34.66 -21 35.32 -21 36 C-9.69103401 35.91574958 1.61778859 35.82092645 12.92654991 35.71247292 C18.1772432 35.66245268 23.4279158 35.6161233 28.67871094 35.578125 C33.7427163 35.54134436 38.80655095 35.49500444 43.87041092 35.44193649 C45.80574179 35.42335402 47.74110931 35.40826043 49.6764946 35.39665604 C52.38004928 35.37985925 55.08320967 35.35084079 57.78662109 35.31884766 C58.59294479 35.31668747 59.39926849 35.31452728 60.23002625 35.31230164 C64.58128268 35.41059815 64.58128268 35.41059815 68 33 C68.78375 32.175 69.5675 31.35 70.375 30.5 C72.60442985 28.37673348 74.19588184 27.14241851 77 26 C74.87867905 30.61032772 72.19705123 34.09278234 68 37 C64.53088716 37.9505899 61.23740173 37.88975887 57.65844727 37.79467773 C56.13535698 37.79621101 56.13535698 37.79621101 54.58149719 37.79777527 C51.24204959 37.79291784 47.90537314 37.73856063 44.56640625 37.68359375 C42.24472039 37.67053108 39.92301518 37.66057007 37.6013031 37.65357971 C31.50328904 37.62690747 25.40645007 37.55818974 19.30889893 37.48065186 C13.08174535 37.40892612 6.8544011 37.37704812 0.62695312 37.34179688 C-11.58254633 37.26682004 -23.79117528 37.14741416 -36 37 C-35.06152371 35.89504774 -34.12158291 34.79133926 -33.18104553 33.68814087 C-32.65777711 33.07337702 -32.13450869 32.45861317 -31.59538364 31.82522011 C-29.21886235 29.10632896 -26.68670521 26.56257539 -24.12109375 24.0234375 C-23.58654068 23.49029938 -23.05198761 22.95716125 -22.50123596 22.40786743 C-20.81569099 20.72784752 -19.12668792 19.05135619 -17.4375 17.375 C-16.30249994 16.24502709 -15.16773255 15.11482044 -14.03320312 13.984375 C-11.94601388 11.90529005 -9.85747924 9.82757787 -7.76733398 7.75146484 C-5.17339262 5.1723983 -2.58518303 2.58783632 0 0 Z " fill="#0D343A" transform="translate(438,788)"/>
<path d="M0 0 C0 3 0 3 -2.59765625 5.85546875 C-3.74525163 6.97374113 -4.90057866 8.08412016 -6.0625 9.1875 C-9.57962135 12.56732844 -13.0039097 15.94688554 -16.16918945 19.66259766 C-20.18932644 24.2845073 -24.47600078 28.60242601 -28.8203125 32.91796875 C-29.64199921 33.73824051 -30.46368591 34.55851227 -31.31027222 35.40364075 C-33.91282151 38.0006398 -36.51883653 40.59412841 -39.125 43.1875 C-40.88174294 44.93921997 -42.63825549 46.69117102 -44.39453125 48.44335938 C-47.61332387 51.65401919 -50.83340768 54.86337093 -54.05517578 58.07104492 C-57.04064018 61.04353057 -60.0226832 64.01935452 -63 67 C-63.66 66.34 -64.32 65.68 -65 65 C-43.55 43.55 -22.1 22.1 0 0 Z " fill="#2BC2A1" transform="translate(800,420)"/>
<path d="M0 0 C0.495 1.485 0.495 1.485 1 3 C-0.375 4.5 -0.375 4.5 -2 6 C-2.66 6 -3.32 6 -4 6 C-4.22204102 6.54873779 -4.44408203 7.09747559 -4.67285156 7.6628418 C-6.40671585 10.71624187 -8.73991497 12.96778552 -11.234375 15.39453125 C-11.75002014 15.90497482 -12.26566528 16.4154184 -12.79693604 16.94132996 C-14.44325938 18.56989761 -16.09610023 20.19163001 -17.75 21.8125 C-19.91485408 23.9405912 -22.07639652 26.07196817 -24.234375 28.20703125 C-24.74988419 28.71658859 -25.26539337 29.22614594 -25.79652405 29.75114441 C-29.41062287 33.34870577 -32.73376215 37.08903983 -36 41 C-37.66270287 42.33827304 -39.32916181 43.67189785 -41 45 C-42.75404078 46.94197372 -44.36950435 48.95023404 -46 51 C-46.66 50.67 -47.32 50.34 -48 50 C-45.9089023 46.21995184 -43.58764134 43.34345287 -40.52856445 40.30151367 C-39.62785721 39.40095749 -38.72714996 38.50040131 -37.79914856 37.57255554 C-36.82063339 36.60425154 -35.8420084 35.6360585 -34.86328125 34.66796875 C-33.8582209 33.66664219 -32.85360391 32.66487044 -31.84941101 31.66267395 C-29.21525085 29.03612139 -26.57513855 26.41563277 -23.93371582 23.79638672 C-21.23537326 21.11856465 -18.54273859 18.43501648 -15.84960938 15.75195312 C-10.57195731 10.49570025 -5.28800026 5.24584423 0 0 Z " fill="#0F655C" transform="translate(550,675)"/>
<path d="M0 0 C0.66 0.33 1.32 0.66 2 1 C1.39526855 1.59687622 1.39526855 1.59687622 0.77832031 2.20581055 C-1.06714477 4.03034057 -2.90859013 5.8588777 -4.75 7.6875 C-5.38421875 8.31333984 -6.0184375 8.93917969 -6.671875 9.58398438 C-9.39435333 12.29228313 -11.94858179 14.93469197 -14.328125 17.95703125 C-14.87984375 18.63121094 -15.4315625 19.30539062 -16 20 C-16.66 20 -17.32 20 -18 20 C-18.23485107 20.56082275 -18.46970215 21.12164551 -18.71166992 21.69946289 C-20.31270104 24.55838202 -22.28138162 26.50585688 -24.61328125 28.80859375 C-25.53173828 29.72060547 -26.45019531 30.63261719 -27.39648438 31.57226562 C-28.36836175 32.52747384 -29.340368 33.48255093 -30.3125 34.4375 C-31.27324846 35.38820522 -32.23353957 36.33937285 -33.19335938 37.29101562 C-34.97209262 39.05234686 -36.75287508 40.81161281 -38.53637695 42.56811523 C-41.03512942 45.03467686 -43.5197904 47.51480617 -46 50 C-46.495 48.515 -46.495 48.515 -47 47 C-31.49 31.49 -15.98 15.98 0 0 Z " fill="#0C7A6B" transform="translate(604,620)"/>
<path d="M0 0 C0.66 0.33 1.32 0.66 2 1 C1.46109131 1.53367187 0.92218262 2.06734375 0.36694336 2.6171875 C-2.11226236 5.07539426 -4.58739599 7.53766366 -7.0625 10 C-7.91005859 10.83917969 -8.75761719 11.67835938 -9.63085938 12.54296875 C-14.11927695 17.01405653 -18.46744848 21.53692143 -22.58007812 26.35742188 C-24.29235766 28.33820191 -26.11164021 30.1871746 -28 32 C-25.69 32.66 -23.38 33.32 -21 34 C-21 34.66 -21 35.32 -21 36 C-25.62 36 -30.24 36 -35 36 C-29.42105111 29.18883109 -23.17961443 23.06758126 -16.9375 16.875 C-15.85067671 15.79320454 -14.76408645 14.71117491 -13.67773438 13.62890625 C-11.67843761 11.63770936 -9.67778875 9.64789336 -7.67553711 7.65966797 C-5.11202994 5.11136546 -2.55460903 2.5572143 0 0 Z " fill="#053235" transform="translate(438,788)"/>
<path d="M0 0 C33.99 0.33 67.98 0.66 103 1 C103 1.33 103 1.66 103 2 C101.75607483 2.01030746 100.51214966 2.02061493 99.23052979 2.03123474 C87.51767469 2.12891715 75.80487333 2.23164641 64.09210587 2.33933926 C58.07021161 2.39454464 52.04831247 2.44796093 46.02636719 2.49731445 C40.2167714 2.54499303 34.40723481 2.59733727 28.59770966 2.65294075 C26.37932557 2.67334843 24.16092526 2.69206414 21.94251251 2.70907402 C18.83954497 2.733153 15.73668916 2.76320303 12.63378906 2.79467773 C11.71309631 2.8004332 10.79240356 2.80618866 9.84381104 2.81211853 C8.57343994 2.82680176 8.57343994 2.82680176 7.27740479 2.84178162 C6.17678396 2.85146044 6.17678396 2.85146044 5.05392838 2.8613348 C2.93290363 3.00452982 1.04205774 3.42237115 -1 4 C-0.67 2.68 -0.34 1.36 0 0 Z " fill="#1F3651" transform="translate(504,387)"/>
<path d="M0 0 C0.66 0.33 1.32 0.66 2 1 C-3.16389038 7.17147874 -8.75237881 12.8256411 -14.49243164 18.45532227 C-18.06358055 21.97840601 -21.4407849 25.56967687 -24.63769531 29.43725586 C-26.88707602 32.01759383 -29.20521656 34.01259844 -32 36 C-32.99 35.67 -33.98 35.34 -35 35 C-23.45 23.45 -11.9 11.9 0 0 Z " fill="#1AB393" transform="translate(735,486)"/>
<path d="M0 0 C0.99 0.33 1.98 0.66 3 1 C3 1.66 3 2.32 3 3 C30.06 3 57.12 3 85 3 C85 3.66 85 4.32 85 5 C56.95 5 28.9 5 0 5 C-0.33 3.68 -0.66 2.36 -1 1 C-0.67 0.67 -0.34 0.34 0 0 Z " fill="#129385" transform="translate(951,820)"/>
<path d="M0 0 C0.99 0.66 1.98 1.32 3 2 C2.35998047 2.53282593 2.35998047 2.53282593 1.70703125 3.07641602 C-5.23080853 8.99056681 -11.5832745 15.47237051 -18 21.9375 C-19.16773374 23.11026009 -20.33570074 24.28278798 -21.50390625 25.45507812 C-24.33863234 28.30071689 -27.17018824 31.14947453 -30 34 C-30.66 33.34 -31.32 32.68 -32 32 C-21.44 21.44 -10.88 10.88 0 0 Z " fill="#35D7AD" transform="translate(832,387)"/>
<path d="M0 0 C0.66 0 1.32 0 2 0 C2.83848804 1.45537568 3.67063934 2.91440373 4.5 4.375 C5.19609375 5.59316406 5.19609375 5.59316406 5.90625 6.8359375 C7 9 7 9 7 11 C6.34 11 5.68 11 5 11 C3 8 3 8 3 5 C-1.17917653 5.51182223 -3.10710028 7.76149845 -5.984375 10.69140625 C-6.44483215 11.15610825 -6.90528931 11.62081024 -7.37969971 12.09959412 C-8.84367811 13.58031819 -10.29686041 15.07114519 -11.75 16.5625 C-12.74279449 17.57034664 -13.7362767 18.57751633 -14.73046875 19.58398438 C-17.16166473 22.04819461 -19.58328868 24.52157329 -22 27 C-22.99 26.67 -23.98 26.34 -25 26 C-24.27820557 25.28344238 -23.55641113 24.56688477 -22.81274414 23.82861328 C-20.13964596 21.17359277 -17.46984029 18.51528247 -14.80102539 15.85595703 C-13.64469755 14.70466305 -12.48747446 13.55426751 -11.3293457 12.40478516 C-9.66642789 10.75397424 -8.0067389 9.09997663 -6.34765625 7.4453125 C-5.56794212 6.6733403 -5.56794212 6.6733403 -4.7724762 5.88577271 C-2.04458311 3.20150686 -2.04458311 3.20150686 0 0 Z " fill="#24CAA1" transform="translate(856,496)"/>
<path d="M0 0 C0.99 0.33 1.98 0.66 3 1 C-0.59510289 5.40400104 -4.24341512 9.16925337 -8.58203125 12.828125 C-10.55456302 14.59989829 -12.4099758 16.40305909 -14.26171875 18.296875 C-14.83656006 18.88452637 -15.41140137 19.47217773 -16.00366211 20.07763672 C-17.1529164 21.26047051 -18.29586485 22.44946947 -19.43188477 23.64501953 C-22.21034485 26.50034405 -24.0687768 28.2820601 -28 29 C-27.67 28.34 -27.34 27.68 -27 27 C-26.34 27 -25.68 27 -25 27 C-24.77779785 26.45182617 -24.5555957 25.90365234 -24.32666016 25.33886719 C-22.59300021 22.28247 -20.26246275 20.01501048 -17.7734375 17.578125 C-17.26575836 17.07327576 -16.75807922 16.56842651 -16.23501587 16.04827881 C-14.61966158 14.44407904 -12.99747791 12.84699144 -11.375 11.25 C-10.27558302 10.16061893 -9.17661941 9.0707801 -8.078125 7.98046875 C-5.3906398 5.31498115 -2.69700979 2.65584857 0 0 Z " fill="#285152" transform="translate(466,759)"/>
<path d="M0 0 C-1.33500119 2.97278616 -2.79521624 5.03469852 -5.1171875 7.3125 C-5.72433594 7.91320312 -6.33148437 8.51390625 -6.95703125 9.1328125 C-7.58996094 9.74898437 -8.22289062 10.36515625 -8.875 11 C-9.50019531 11.61617187 -10.12539063 12.23234375 -10.76953125 12.8671875 C-11.97426303 14.05409027 -13.1808817 15.23908177 -14.38964844 16.421875 C-16.27330465 18.26783524 -18.13978505 20.13043724 -20 22 C-20.99 21.67 -21.98 21.34 -23 21 C-20.05226582 18.00292183 -17.09808792 15.01239506 -14.13769531 12.02783203 C-13.13100272 11.01106601 -12.12611034 9.99251438 -11.12304688 8.97216797 C-9.68305629 7.50798782 -8.23676744 6.05029795 -6.7890625 4.59375 C-5.91975098 3.71396484 -5.05043945 2.83417969 -4.15478516 1.92773438 C-2 0 -2 0 0 0 Z " fill="#26A48D" transform="translate(677,547)"/>
<path d="M0 0 C0 5.07426265 -3.74919015 8.31574884 -7 12 C-8.87788308 13.77721306 -10.814499 15.43916518 -12.80078125 17.09375 C-17.09709976 20.81773478 -21.01860521 24.94517785 -25 29 C-25.66 28.67 -26.32 28.34 -27 28 C-25.98631348 26.9941687 -25.98631348 26.9941687 -24.95214844 25.96801758 C-22.42987339 23.46393228 -19.91098268 20.95646552 -17.39306641 18.44799805 C-16.30576154 17.36570157 -15.21755824 16.28430687 -14.12841797 15.20385742 C-12.55715925 13.64481801 -10.9892303 12.0824937 -9.421875 10.51953125 C-8.69819733 9.8035955 -8.69819733 9.8035955 -7.9598999 9.07319641 C-5.08549719 6.19926549 -2.48108488 3.2187737 0 0 Z " fill="#DCF1EE" transform="translate(724,598)"/>
<path d="M0 0 C0 3 0 3 -2.6328125 5.890625 C-3.79011067 7.01740618 -4.95459735 8.13683671 -6.125 9.25 C-11.47235383 14.4168061 -11.47235383 14.4168061 -16.375 20 C-19.33446176 23.38224201 -22.26339581 25.53384123 -26 28 C-24.39626852 23.99482604 -21.57886014 21.3228902 -18.5546875 18.359375 C-17.75987473 17.56880707 -17.75987473 17.56880707 -16.94900513 16.76226807 C-15.26232175 15.08674325 -13.56880436 13.41832278 -11.875 11.75 C-10.72740612 10.61244149 -9.58026539 9.47442564 -8.43359375 8.3359375 C-5.62761863 5.55196535 -2.81549536 2.7743424 0 0 Z " fill="#1CC8A0" transform="translate(800,420)"/>
<path d="M0 0 C0.33 0.99 0.66 1.98 1 3 C-1.39023616 5.58856055 -3.78816268 8.1698754 -6.1875 10.75 C-6.86103516 11.47960937 -7.53457031 12.20921875 -8.22851562 12.9609375 C-11.63160283 16.61303108 -14.96664627 20.02393317 -19 23 C-19 20 -19 20 -17.47119141 18.14648438 C-16.77171387 17.46908203 -16.07223633 16.79167969 -15.3515625 16.09375 C-14.21460938 14.97806641 -14.21460938 14.97806641 -13.0546875 13.83984375 C-12.25289062 13.06769531 -11.45109375 12.29554688 -10.625 11.5 C-9.05254978 9.97094532 -7.48214602 8.43978252 -5.9140625 6.90625 C-5.2123291 6.22884766 -4.5105957 5.55144531 -3.78759766 4.85351562 C-1.82090872 2.92455899 -1.82090872 2.92455899 0 0 Z " fill="#22BD9C" transform="translate(823,530)"/>
<path d="M0 0 C8.25 0 16.5 0 25 0 C22.73106888 4.53786224 20.90133466 5.94678157 17 9 C18.12451727 6.0280615 19.22293791 3.66559313 21 1 C19.73542969 1.08378906 18.47085938 1.16757812 17.16796875 1.25390625 C15.5078316 1.35707862 13.84767425 1.45992631 12.1875 1.5625 C11.35412109 1.61857422 10.52074219 1.67464844 9.66210938 1.73242188 C8.85966797 1.78076172 8.05722656 1.82910156 7.23046875 1.87890625 C6.49207764 1.9260376 5.75368652 1.97316895 4.99291992 2.02172852 C3 2 3 2 0 1 C0 0.67 0 0.34 0 0 Z " fill="#2ED8AD" transform="translate(899,387)"/>
<path d="M0 0 C0 3 0 3 -1 5 C1.31 5.66 3.62 6.32 6 7 C6 7.66 6 8.32 6 9 C1.38 9 -3.24 9 -8 9 C-2.25 2.25 -2.25 2.25 0 0 Z " fill="#062A2B" transform="translate(411,815)"/>
<path d="M0 0 C0.66 0 1.32 0 2 0 C-0.13472173 4.61153404 -2.70971318 8.18316419 -7 11 C-10.85935211 11.82398707 -14.51398516 11.66979658 -18.4375 11.4375 C-19.45521484 11.40591797 -20.47292969 11.37433594 -21.52148438 11.34179688 C-24.01735816 11.25977285 -26.5071317 11.14510107 -29 11 C-29 10.67 -29 10.34 -29 10 C-28.40461426 9.98018066 -27.80922852 9.96036133 -27.19580078 9.93994141 C-24.50507847 9.84483874 -21.81514852 9.73510158 -19.125 9.625 C-18.18785156 9.5940625 -17.25070312 9.563125 -16.28515625 9.53125 C-14.94130859 9.47324219 -14.94130859 9.47324219 -13.5703125 9.4140625 C-12.74289551 9.3826416 -11.91547852 9.3512207 -11.06298828 9.31884766 C-8.78013915 9.17400863 -8.78013915 9.17400863 -7 7 C-4.66666667 4.66666667 -2.33333333 2.33333333 0 0 Z " fill="#104947" transform="translate(513,814)"/>
<path d="M0 0 C0.33 0.99 0.66 1.98 1 3 C0.53102295 3.43868408 0.0620459 3.87736816 -0.42114258 4.3293457 C-2.5520892 6.3232031 -4.68230171 8.31784313 -6.8125 10.3125 C-7.91948242 11.34793945 -7.91948242 11.34793945 -9.04882812 12.40429688 C-9.76103516 13.07138672 -10.47324219 13.73847656 -11.20703125 14.42578125 C-11.8616333 15.03848877 -12.51623535 15.65119629 -13.19067383 16.2824707 C-14.82094802 17.83003229 -16.41921514 19.40210245 -18 21 C-18.66 20.67 -19.32 20.34 -20 20 C-13.4 13.4 -6.8 6.8 0 0 Z " fill="#D8E8E7" transform="translate(572,756)"/>
<path d="M0 0 C0.66 0.66 1.32 1.32 2 2 C-3.13122145 7.25404324 -8.4069024 12.23991693 -14 17 C-14.66 16.67 -15.32 16.34 -16 16 C-10.72 10.72 -5.44 5.44 0 0 Z " fill="#E4F5F2" transform="translate(767,554)"/>
<path d="M0 0 C0.33 0.99 0.66 1.98 1 3 C-3 7 -7 11 -11 15 C-11.33 14.01 -11.66 13.02 -12 12 C-8.04 8.04 -4.08 4.08 0 0 Z " fill="#1D796E" transform="translate(569,655)"/>
<path d="M0 0 C0 4.91075921 -3.69530187 7.60955122 -7 11 C-8.94602014 12.76450416 -10.92714711 14.3821636 -13 16 C-13 13 -13 13 -11.80664062 11.46606445 C-11.26201172 10.937146 -10.71738281 10.40822754 -10.15625 9.86328125 C-9.56972656 9.28642578 -8.98320313 8.70957031 -8.37890625 8.11523438 C-7.75886719 7.52033203 -7.13882813 6.92542969 -6.5 6.3125 C-5.87996094 5.70599609 -5.25992188 5.09949219 -4.62109375 4.47460938 C-3.08735293 2.97626257 -1.54451802 1.48723507 0 0 Z " fill="#43D7B3" transform="translate(814,405)"/>
<path d="M0 0 C3.01693943 2.85674795 5.40554531 5.82348931 7.75 9.25 C8.67039062 10.58804687 8.67039062 10.58804687 9.609375 11.953125 C10.06828125 12.62859375 10.5271875 13.3040625 11 14 C10.34 14.66 9.68 15.32 9 16 C5.7 11.38 2.4 6.76 -1 2 C-0.67 1.34 -0.34 0.68 0 0 Z " fill="#273D58" transform="translate(574,469)"/>
<path d="M0 0 C0.99 0.33 1.98 0.66 3 1 C-2.28 6.28 -7.56 11.56 -13 17 C-13 14 -13 14 -10.75 11.625 C-9.8425 10.75875 -8.935 9.8925 -8 9 C-6.66172696 7.33729713 -5.32810215 5.67083819 -4 4 C-2.68505488 2.64852862 -1.35735142 1.30887458 0 0 Z " fill="#37D9AE" transform="translate(889,422)"/>
<path d="M0 0 C3.226345 3.80247803 5.77535219 7.55070439 8 12 C7.67 12.99 7.34 13.98 7 15 C4.69145075 12.87666387 3.21587424 10.86387158 1.8125 8.0625 C1.29623047 7.05896484 1.29623047 7.05896484 0.76953125 6.03515625 C0 4 0 4 0 0 Z " fill="#2BC7A2" transform="translate(907,585)"/>
<path d="M0 0 C0.33 0.99 0.66 1.98 1 3 C-1.53790306 6.45436806 -3.43145646 8.62097097 -7 11 C-7.99 10.67 -8.98 10.34 -10 10 C-6.7 6.7 -3.4 3.4 0 0 Z " fill="#2AB096" transform="translate(710,511)"/>
<path d="M0 0 C0.6875 1.625 0.6875 1.625 1 4 C-0.3988758 7.26404354 -2.03033187 10.04549781 -4 13 C-4.66 13 -5.32 13 -6 13 C-4.58707905 8.1725201 -2.57025846 4.2837641 0 0 Z " fill="#242E43" transform="translate(296,770)"/>
<path d="M0 0 C0.66 0 1.32 0 2 0 C0.41332422 3.90285767 -2.13350481 6.33520982 -5.125 9.25 C-6.03507813 10.14203125 -6.94515625 11.0340625 -7.8828125 11.953125 C-8.58148437 12.62859375 -9.28015625 13.3040625 -10 14 C-10 9.68381834 -7.86729652 8.07210341 -5 5 C-4.34 5 -3.68 5 -3 5 C-3 4.34 -3 3.68 -3 3 C-2.34 3 -1.68 3 -1 3 C-0.67 2.01 -0.34 1.02 0 0 Z " fill="#0E7164" transform="translate(629,694)"/>
<path d="M0 0 C3.97497544 3.40712181 5.86793788 7.32760855 8 12 C7.34 12.66 6.68 13.32 6 14 C4.99515796 12.04414675 3.99626195 10.08523763 3 8.125 C2.1646875 6.48917969 2.1646875 6.48917969 1.3125 4.8203125 C0 2 0 2 0 0 Z " fill="#20344F" transform="translate(862,713)"/>
<path d="M0 0 C0.66 0.33 1.32 0.66 2 1 C1.55269531 1.43570313 1.10539063 1.87140625 0.64453125 2.3203125 C-3.14521536 6.05349573 -6.66459583 9.856013 -10 14 C-10.33 13.01 -10.66 12.02 -11 11 C-10.34 11 -9.68 11 -9 11 C-8.61714844 10.12601563 -8.61714844 10.12601563 -8.2265625 9.234375 C-6.88258913 6.78611777 -5.38189704 5.18256752 -3.375 3.25 C-2.74335937 2.63640625 -2.11171875 2.0228125 -1.4609375 1.390625 C-0.73777344 0.70226562 -0.73777344 0.70226562 0 0 Z " fill="#20B090" transform="translate(775,543)"/>
<path d="M0 0 C0.66 0.33 1.32 0.66 2 1 C0.56665422 2.62866544 -0.87182979 4.25280994 -2.3125 5.875 C-3.51326172 7.23238281 -3.51326172 7.23238281 -4.73828125 8.6171875 C-7 11 -7 11 -10 13 C-9.67 11.68 -9.34 10.36 -9 9 C-8.34 9 -7.68 9 -7 9 C-6.67 8.01 -6.34 7.02 -6 6 C-5.34 6 -4.68 6 -4 6 C-3.67 5.01 -3.34 4.02 -3 3 C-2.34 3 -1.68 3 -1 3 C-0.67 2.01 -0.34 1.02 0 0 Z " fill="#35D2AB" transform="translate(857,456)"/>
<path d="M0 0 C0 4.02301077 -1.32422888 5.04256877 -4 8 C-5.94943557 9.74498257 -7.95058713 11.36978522 -10 13 C-10.66 12.67 -11.32 12.34 -12 12 C-8.04 8.04 -4.08 4.08 0 0 Z " fill="#E9F2F2" transform="translate(546,783)"/>
<path d="M0 0 C0.66 0.33 1.32 0.66 2 1 C-2.33333333 5.33333333 -6.66666667 9.66666667 -11 14 C-10.52590352 9.68269587 -7.96603297 7.66352539 -4.9375 4.75 C-4.01839844 3.85796875 -3.09929688 2.9659375 -2.15234375 2.046875 C-1.44207031 1.37140625 -0.73179687 0.6959375 0 0 Z " fill="#1FB795" transform="translate(797,520)"/>
<path d="M0 0 C0.33 0.66 0.66 1.32 1 2 C-2.66666667 5.66666667 -6.33333333 9.33333333 -10 13 C-10.66 12.67 -11.32 12.34 -12 12 C-8.04 8.04 -4.08 4.08 0 0 Z " fill="#E9F2F1" transform="translate(520,810)"/>
<path d="M0 0 C0.66 0 1.32 0 2 0 C2.83848804 1.45537568 3.67063934 2.91440373 4.5 4.375 C5.19609375 5.59316406 5.19609375 5.59316406 5.90625 6.8359375 C7 9 7 9 7 11 C6.34 11 5.68 11 5 11 C3 8 3 8 3 5 C1.35 4.67 -0.3 4.34 -2 4 C-1.34 2.68 -0.68 1.36 0 0 Z " fill="#37D1AA" transform="translate(856,496)"/>
<path d="M0 0 C1.0169313 2.65498232 1.13022151 3.69155375 0.00390625 6.359375 C-0.47175781 7.14828125 -0.94742187 7.9371875 -1.4375 8.75 C-1.91058594 9.54921875 -2.38367188 10.3484375 -2.87109375 11.171875 C-3.24363281 11.77515625 -3.61617188 12.3784375 -4 13 C-4.66 13 -5.32 13 -6 13 C-4.58707905 8.1725201 -2.57025846 4.2837641 0 0 Z " fill="#2D344C" transform="translate(319,727)"/>
<path d="M0 0 C0.66 0.33 1.32 0.66 2 1 C-0.97 4.3 -3.94 7.6 -7 11 C-7.33 10.34 -7.66 9.68 -8 9 C-7.67 8.34 -7.34 7.68 -7 7 C-6.34 7 -5.68 7 -5 7 C-4.9175 6.401875 -4.835 5.80375 -4.75 5.1875 C-3.79544128 2.4033704 -2.42867729 1.56688858 0 0 Z " fill="#34D7AC" transform="translate(873,439)"/>
<path d="M0 0 C0.66 0.66 1.32 1.32 2 2 C0.02 3.98 -1.96 5.96 -4 8 C-4.99 7.67 -5.98 7.34 -7 7 C-4.69 4.69 -2.38 2.38 0 0 Z " fill="#31CBA7" transform="translate(838,515)"/>
<path d="M0 0 C0.99 0.33 1.98 0.66 3 1 C-0.3 4.3 -3.6 7.6 -7 11 C-7 6.49696476 -4.27543693 4.32098825 -1.25 1.1875 C-0.8375 0.795625 -0.425 0.40375 0 0 Z " fill="#44DFB5" transform="translate(908,402)"/>
<path d="M0 0 C1.2065625 0.0309375 1.2065625 0.0309375 2.4375 0.0625 C2.7675 1.0525 3.0975 2.0425 3.4375 3.0625 C-0.1925 3.0625 -3.8225 3.0625 -7.5625 3.0625 C-6.2425 2.4025 -4.9225 1.7425 -3.5625 1.0625 C-2.5625 0.0625 -2.5625 0.0625 0 0 Z " fill="#062222" transform="translate(413.5625,820.9375)"/>
<path d="M0 0 C0.99 0.33 1.98 0.66 3 1 C1.68 3.64 0.36 6.28 -1 9 C-1.66 8.34 -2.32 7.68 -3 7 C-2.61121812 3.98694043 -1.73543126 2.60314689 0 0 Z " fill="#E8EAEC" transform="translate(290,776)"/>
<path d="M0 0 C4.66154042 1.49835228 5.86610751 4.88463591 8 9 C6.68 8.67 5.36 8.34 4 8 C3.67 6.68 3.34 5.36 3 4 C2.34 4 1.68 4 1 4 C0.67 2.68 0.34 1.36 0 0 Z " fill="#20324B" transform="translate(675,483)"/>
<path d="M0 0 C3.28788824 3.11016455 5.83735988 6.01618925 8 10 C4.20401451 8.50871999 2.28279601 6.34266559 0 3 C0 2.01 0 1.02 0 0 Z " fill="#223853" transform="translate(658,458)"/>
<path d="M0 0 C-1.5830577 4.2742558 -4.50568404 6.26531794 -8 9 C-6.68994234 5.06982701 -4.75047804 0 0 0 Z " fill="#3CDFB7" transform="translate(924,387)"/>
<path d="M0 0 C7 8.44827586 7 8.44827586 7 12 C6.34 12 5.68 12 5 12 C4.34 10.02 3.68 8.04 3 6 C2.34 6 1.68 6 1 6 C0.67 4.02 0.34 2.04 0 0 Z " fill="#32CBA5" transform="translate(890,555)"/>
<path d="M0 0 C0.75 1.5625 0.75 1.5625 1 4 C-0.13084437 6.50286409 -1.52139516 8.67007722 -3 11 C-3.66 11 -4.32 11 -5 11 C-3.77472971 6.94718288 -2.30119506 3.55639236 0 0 Z " fill="#32455E" transform="translate(502,391)"/>
<path d="M0 0 C1.98 0.495 1.98 0.495 4 1 C4.33 2.32 4.66 3.64 5 5 C3.02 5 1.04 5 -1 5 C-0.67 3.35 -0.34 1.7 0 0 Z " fill="#199F89" transform="translate(1037,820)"/>
<path d="M0 0 C0.6875 1.625 0.6875 1.625 1 4 C-0.4375 7.25 -0.4375 7.25 -2 10 C-2.66 9.67 -3.32 9.34 -4 9 C-2.94124926 5.59687262 -1.99097846 2.98646769 0 0 Z " fill="#263147" transform="translate(283,794)"/>
<path d="M0 0 C0.268125 0.556875 0.53625 1.11375 0.8125 1.6875 C2.00329541 4.09821537 2.00329541 4.09821537 3.6875 6.625 C4.120625 7.40875 4.55375 8.1925 5 9 C4.67 9.66 4.34 10.32 4 11 C3.13341385 9.73760288 2.28207941 8.46472499 1.4375 7.1875 C0.72400391 6.12595703 0.72400391 6.12595703 -0.00390625 5.04296875 C-1 3 -1 3 0 0 Z " fill="#10947C" transform="translate(937,795)"/>
<path d="M0 0 C0.99 0.33 1.98 0.66 3 1 C1.02 3.31 -0.96 5.62 -3 8 C-3.66 7.67 -4.32 7.34 -5 7 C-3.47793991 4.37098712 -2.15634036 2.15634036 0 0 Z " fill="#1C524F" transform="translate(466,759)"/>
<path d="M0 0 C0.33 0.99 0.66 1.98 1 3 C-0.125 5.125 -0.125 5.125 -2 7 C-4.6875 7.75 -4.6875 7.75 -7 8 C-6.02133662 6.85373678 -5.04205413 5.70800212 -4.0625 4.5625 C-3.51722656 3.92441406 -2.97195313 3.28632812 -2.41015625 2.62890625 C-1.63204305 1.73008851 -0.84063472 0.84063472 0 0 Z " fill="#2A6562" transform="translate(494,731)"/>
<path d="M0 0 C4.29 0.33 8.58 0.66 13 1 C13 1.33 13 1.66 13 2 C11.98679687 2.09087891 11.98679687 2.09087891 10.953125 2.18359375 C10.06109375 2.26738281 9.1690625 2.35117187 8.25 2.4375 C7.36828125 2.51871094 6.4865625 2.59992188 5.578125 2.68359375 C3.30649548 2.96238465 1.20148177 3.38790577 -1 4 C-0.67 2.68 -0.34 1.36 0 0 Z " fill="#253C57" transform="translate(504,387)"/>
<path d="M0 0 C0.99 0 1.98 0 3 0 C1.95125002 2.62187494 1.35068687 3.79371361 -1.125 5.25 C-1.74375 5.4975 -2.3625 5.745 -3 6 C-1.125 1.125 -1.125 1.125 0 0 Z " fill="#115B56" transform="translate(505,720)"/>
<path d="M0 0 C2.32472205 2.85306797 3.7508258 5.54074837 5 9 C4.01 9.495 4.01 9.495 3 10 C0.59185923 6.48812804 -0.36629408 4.27343092 0 0 Z " fill="#2CC3A2" transform="translate(930,625)"/>
<path d="M0 0 C3.2542015 2.83430453 4.5206753 4.68607774 5 9 C0.125 4.375 0.125 4.375 -1 1 C-0.67 0.67 -0.34 0.34 0 0 Z " fill="#213753" transform="translate(574,469)"/>
<path d="M0 0 C0.66 0 1.32 0 2 0 C0.83857315 4.35535069 -0.07699505 6.64619703 -4 9 C-2.80100302 5.9168649 -1.52299523 2.93720508 0 0 Z " fill="#E2E5E9" transform="translate(364,808)"/>
<path d="M0 0 C0 3 0 3 -2.5 5.6875 C-3.325 6.450625 -4.15 7.21375 -5 8 C-5.66 7.67 -6.32 7.34 -7 7 C-4.69 4.69 -2.38 2.38 0 0 Z " fill="#325C5B" transform="translate(461,764)"/>
<path d="M0 0 C0 3 0 3 -2.5 5.6875 C-3.325 6.450625 -4.15 7.21375 -5 8 C-5.66 7.67 -6.32 7.34 -7 7 C-4.69 4.69 -2.38 2.38 0 0 Z " fill="#21655F" transform="translate(513,712)"/>
<path d="M0 0 C1.07349791 4.29399165 0.79682816 5.19495213 -1 9 C-1.99 8.67 -2.98 8.34 -4 8 C-2.68 5.36 -1.36 2.72 0 0 Z " fill="#1D314D" transform="translate(401,576)"/>
<path d="M0 0 C0.66 0.66 1.32 1.32 2 2 C-0.31 4.31 -2.62 6.62 -5 9 C-5.66 8.67 -6.32 8.34 -7 8 C-4.69 5.36 -2.38 2.72 0 0 Z " fill="#DFF5F1" transform="translate(822,495)"/>
<path d="M0 0 C0.99 0.33 1.98 0.66 3 1 C3 1.66 3 2.32 3 3 C3.99 3.66 4.98 4.32 6 5 C4.02 5 2.04 5 0 5 C-0.5625 3.0625 -0.5625 3.0625 -1 1 C-0.67 0.67 -0.34 0.34 0 0 Z " fill="#0E8D7A" transform="translate(951,820)"/>
<path d="M0 0 C0.66 0.66 1.32 1.32 2 2 C-0.97 4.475 -0.97 4.475 -4 7 C-4 4 -4 4 -2 1.8125 C-1.34 1.214375 -0.68 0.61625 0 0 Z " fill="#2CC2A3" transform="translate(808,546)"/>
</svg>
